<svg xmlns="http://www.w3.org/2000/svg" viewBox="0 0 45 41"><title>Artboard 1</title><path d="M16.4,16.68c0,.81,0,1.62,0,2.43a2,2,0,0,1-2.08,2.09,2,2,0,0,1-2.14-2.08c0-1.63,0-3.26,0-4.89a.68.68,0,0,0-.63-.8,10,10,0,0,1-3.77-1.76c-.32-.24-.51-.19-.77.08-1,1.07-2.11,2.13-3.18,3.18a2.12,2.12,0,0,1-3.36-.46,2.34,2.34,0,0,1,.47-2.72c1.11-1.09,2.2-2.21,3.31-3.3a.57.57,0,0,0,.12-.8A10.59,10.59,0,0,1,3.19,3.11,2.14,2.14,0,0,1,4.3.92a2.08,2.08,0,0,1,2.36.2A2.27,2.27,0,0,1,7.47,3a6.84,6.84,0,0,0,6.2,6.48,6.89,6.89,0,0,0,7.4-5.84,10.44,10.44,0,0,0,.09-1.1,2.12,2.12,0,0,1,4.22,0A10.33,10.33,0,0,1,24.2,7.66a.57.57,0,0,0,.13.8c1.14,1.11,2.25,2.24,3.37,3.36a2.17,2.17,0,0,1,.16,3,2.09,2.09,0,0,1-2.91.2,21.39,21.39,0,0,1-1.69-1.61c-.61-.6-1.21-1.2-1.81-1.81a.36.36,0,0,0-.56,0,10.43,10.43,0,0,1-4,1.88.5.5,0,0,0-.46.58c0,.88,0,1.76,0,2.65Z" style="fill:#fff;fill-rule:evenodd"/><path d="M37.57,12.54c0,3.25,0,6.5,0,9.74a7.93,7.93,0,0,1-2.37,5.63,7,7,0,0,1-4,2A8.6,8.6,0,0,1,25.4,29a8.18,8.18,0,0,1-4.24-6.53,5,5,0,0,1,0-1.35,2,2,0,0,1,2-1.66,2.08,2.08,0,0,1,2.06,1.66A18.52,18.52,0,0,0,25.69,23a3.71,3.71,0,0,0,3.13,2.7,3.79,3.79,0,0,0,4-1.78,3.85,3.85,0,0,0,.49-2c0-6.32,0-12.64,0-19a3.52,3.52,0,0,1,.07-.87A2.08,2.08,0,0,1,35.81.56a2,2,0,0,1,1.75,2.06Q37.57,7.58,37.57,12.54Z" style="fill:#fff;fill-rule:evenodd"/><path d="M29.33,40.46a17.41,17.41,0,0,1-10.42-3.32,17,17,0,0,1-4.5-4.79,2.38,2.38,0,0,1-.35-2.18A2.07,2.07,0,0,1,16,28.75a2,2,0,0,1,2,.93A13.2,13.2,0,0,0,22.08,34,13,13,0,0,0,28.52,36a13.49,13.49,0,0,0,6-.93,12.75,12.75,0,0,0,6.18-5.24,2.19,2.19,0,0,1,3.62-.33,2.11,2.11,0,0,1,.27,2.32,20.66,20.66,0,0,1-2.1,2.93A16.91,16.91,0,0,1,31.75,40.3C30.95,40.4,30.14,40.41,29.33,40.46Z" style="fill:#fff;fill-rule:evenodd"/></svg>