<svg xmlns="http://www.w3.org/2000/svg" viewBox="0 0 205.67 27.67"><title>logo</title><path d="M11.32,19.21a2.84,2.84,0,0,0-.71-2.1A8.16,8.16,0,0,0,8,15.64a12,12,0,0,1-4.91-3A6.09,6.09,0,0,1,1.63,8.5a5.76,5.76,0,0,1,2-4.61A7.67,7.67,0,0,1,8.83,2.16,7.74,7.74,0,0,1,12.56,3a6.11,6.11,0,0,1,2.52,2.49A7.46,7.46,0,0,1,16,9.17H11.39a3.76,3.76,0,0,0-.68-2.42,2.38,2.38,0,0,0-2-.83,2.45,2.45,0,0,0-1.87.71,2.67,2.67,0,0,0-.67,1.91A2.35,2.35,0,0,0,7,10.22a8.61,8.61,0,0,0,2.65,1.57,11.36,11.36,0,0,1,4.82,2.95,6.56,6.56,0,0,1,1.5,4.44,5.86,5.86,0,0,1-1.89,4.63,7.46,7.46,0,0,1-5.13,1.67,8.83,8.83,0,0,1-4-.9A6.78,6.78,0,0,1,2.09,22a7.52,7.52,0,0,1-1-4h4.6a4.34,4.34,0,0,0,.76,2.85,3.13,3.13,0,0,0,2.49.89Q11.32,21.75,11.32,19.21Z" style="fill:#231f20"/><path d="M34.32,15.86q0,4.57-2.16,7.09a7.46,7.46,0,0,1-6,2.53,7.55,7.55,0,0,1-6-2.5,10.43,10.43,0,0,1-2.21-7V12.08q0-4.68,2.17-7.3a7.37,7.37,0,0,1,6-2.63,7.41,7.41,0,0,1,6,2.58Q34.28,7.32,34.32,12v3.88Zm-4.6-3.8a9.32,9.32,0,0,0-.87-4.57A2.92,2.92,0,0,0,26.13,6a2.93,2.93,0,0,0-2.7,1.44,8.85,8.85,0,0,0-.9,4.39v4a8.44,8.44,0,0,0,.89,4.39,3,3,0,0,0,2.74,1.41,2.94,2.94,0,0,0,2.67-1.38A8.28,8.28,0,0,0,29.72,16V12.05Z" style="fill:#231f20"/><path d="M52.35,17.6a8.49,8.49,0,0,1-2.18,5.88,7.71,7.71,0,0,1-5.67,2,7.15,7.15,0,0,1-5.9-2.53q-2.05-2.53-2-7.22V11.9q0-4.68,2.12-7.21a7.26,7.26,0,0,1,5.89-2.53,7.32,7.32,0,0,1,5.63,2.07,9.43,9.43,0,0,1,2.19,6h-4.6A6.11,6.11,0,0,0,47,6.87,2.92,2.92,0,0,0,44.56,6,2.78,2.78,0,0,0,42,7.25a9,9,0,0,0-.81,4.23v4.29a9.88,9.88,0,0,0,.76,4.64,2.78,2.78,0,0,0,2.6,1.26A3,3,0,0,0,47,20.79a5.8,5.8,0,0,0,.78-3.19h4.58Z" style="fill:#231f20"/><path d="M59.64,25.16H55.05V2.47h4.58V25.16Z" style="fill:#231f20"/><path d="M74,20.52H67.75l-1.22,4.64H61.69L68.78,2.47H73l7.14,22.69H75.22ZM68.75,16.7H73L70.87,8.61Z" style="fill:#231f20"/><path d="M87.13,21.36h8v3.8H82.55V2.47h4.58V21.36Z" style="fill:#231f20"/><path d="M102.29,25.16H97.71V2.47h4.58V25.16Z" style="fill:#231f20"/><path d="M115.41,19.21a2.84,2.84,0,0,0-.71-2.1,8.16,8.16,0,0,0-2.58-1.47,12,12,0,0,1-4.91-3,6.09,6.09,0,0,1-1.5-4.11,5.76,5.76,0,0,1,2-4.61A8.45,8.45,0,0,1,116.64,3a6.12,6.12,0,0,1,2.52,2.49A7.46,7.46,0,0,1,120,9.17h-4.57a3.76,3.76,0,0,0-.68-2.42,2.38,2.38,0,0,0-2-.83,2.45,2.45,0,0,0-1.87.71,2.67,2.67,0,0,0-.67,1.91,2.35,2.35,0,0,0,.75,1.69,8.61,8.61,0,0,0,2.65,1.57,11.36,11.36,0,0,1,4.82,2.95,6.56,6.56,0,0,1,1.5,4.44,5.85,5.85,0,0,1-1.89,4.63A7.46,7.46,0,0,1,113,25.47a8.84,8.84,0,0,1-4-.9A6.78,6.78,0,0,1,106.17,22a7.52,7.52,0,0,1-1-4h4.6a4.33,4.33,0,0,0,.76,2.85,3.13,3.13,0,0,0,2.49.89Q115.41,21.75,115.41,19.21Z" style="fill:#231f20"/><path d="M128.72,2.47L133,18.88l4.27-16.41h6V25.16h-4.6V19l0.42-9.46-4.54,15.6h-3.12L126.9,9.56,127.32,19v6.14h-4.58V2.47h6Z" style="fill:#231f20"/><path d="M160.36,25.16h-4.58V2.47h4.58V25.16Z" style="fill:#231f20"/><path d="M173.16,19.21a2.84,2.84,0,0,0-.71-2.1,8.16,8.16,0,0,0-2.58-1.47,12,12,0,0,1-4.91-3,6.09,6.09,0,0,1-1.5-4.11,5.76,5.76,0,0,1,2-4.61A8.45,8.45,0,0,1,174.39,3a6.12,6.12,0,0,1,2.52,2.49,7.46,7.46,0,0,1,.88,3.65h-4.57a3.76,3.76,0,0,0-.68-2.42,2.38,2.38,0,0,0-2-.83,2.45,2.45,0,0,0-1.87.71A2.67,2.67,0,0,0,168,8.53a2.35,2.35,0,0,0,.75,1.69,8.61,8.61,0,0,0,2.65,1.57,11.36,11.36,0,0,1,4.82,2.95,6.56,6.56,0,0,1,1.5,4.44,5.85,5.85,0,0,1-1.89,4.63,7.46,7.46,0,0,1-5.13,1.67,8.84,8.84,0,0,1-4-.9A6.78,6.78,0,0,1,163.92,22a7.52,7.52,0,0,1-1-4h4.6a4.33,4.33,0,0,0,.76,2.85,3.13,3.13,0,0,0,2.49.89Q173.16,21.75,173.16,19.21Z" style="fill:#231f20"/><path d="M180.63,22.92a2.32,2.32,0,0,1,.71-1.75,2.55,2.55,0,0,1,1.85-.69,2.6,2.6,0,0,1,1.84.68,2.28,2.28,0,0,1,.73,1.75,2.24,2.24,0,0,1-.74,1.75,2.65,2.65,0,0,1-1.83.66,2.59,2.59,0,0,1-1.83-.67A2.27,2.27,0,0,1,180.63,22.92Z" style="fill:#231f20"/><path d="M189.6,22.92a2.32,2.32,0,0,1,.71-1.75,2.55,2.55,0,0,1,1.85-.69,2.6,2.6,0,0,1,1.84.68,2.28,2.28,0,0,1,.73,1.75,2.24,2.24,0,0,1-.74,1.75,2.65,2.65,0,0,1-1.83.66,2.59,2.59,0,0,1-1.83-.67A2.27,2.27,0,0,1,189.6,22.92Z" style="fill:#231f20"/><path d="M198.58,22.92a2.32,2.32,0,0,1,.71-1.75,2.55,2.55,0,0,1,1.85-.69,2.6,2.6,0,0,1,1.84.68,2.28,2.28,0,0,1,.73,1.75,2.24,2.24,0,0,1-.74,1.75,2.65,2.65,0,0,1-1.83.66,2.59,2.59,0,0,1-1.83-.67A2.27,2.27,0,0,1,198.58,22.92Z" style="fill:#231f20"/></svg>