<svg version="1.1" xmlns="http://www.w3.org/2000/svg" xmlns:xlink="http://www.w3.org/1999/xlink" width="800" height="500" viewBox="0 0 800 500"><defs/><g/><g transform="scale(1,1)"><g><g transform="scale(1,1)"><rect fill="rgb(90,60,0)" stroke="none" x="0" y="0" width="800" height="500" fill-opacity="1"/></g><path fill="none" stroke="rgb(136,62,0)" paint-order="fill stroke markers" d=" M 0 388.28197440811033 L 800 388.28197440811033" stroke-opacity="1" stroke-linecap="square" stroke-miterlimit="10" stroke-width="46.360882734746866"/><path fill="none" stroke="rgb(96,69,0)" paint-order="fill stroke markers" d=" M 370.586073500967 212.49999999999972 C 370.586073500967 167.3130659254541 407.2173212446035 130.68181818181762 452.4042553191491 130.68181818181762 C 497.5911893936947 130.68181818181762 534.2224371373312 167.3130659254541 534.2224371373312 212.49999999999972 C 534.2224371373312 257.6869340745453 497.5911893936947 294.31818181818176 452.4042553191491 294.31818181818176 C 407.2173212446035 294.31818181818176 370.586073500967 257.6869340745453 370.586073500967 212.49999999999972 Z" stroke-opacity="1" stroke-linecap="square" stroke-miterlimit="10" stroke-width="30"/><g transform="translate(715,85) rotate(-45,0,0)"><path fill="rgb(50,100,0)" stroke="none" paint-order="stroke fill markers" d=" M 46 0 L 13.435028842544403 13.435028842544401 L 2.8166876380389124e-15 46 L -13.435028842544401 13.435028842544403 L -46 5.633375276077825e-15 L -13.435028842544407 -13.435028842544401 L -8.450062914116736e-15 -46 L 13.4350288425444 -13.435028842544407 L 46 0 L 46 0" fill-opacity="1"/></g></g></g></svg>