<svg version="1.1" xmlns="http://www.w3.org/2000/svg" xmlns:xlink="http://www.w3.org/1999/xlink" width="800" height="500" viewBox="0 0 800 500"><defs/><g/><g transform="scale(1,1)"><g><g transform="scale(1,1)"><rect fill="rgb(255,6,0)" stroke="none" x="0" y="0" width="800" height="500" fill-opacity="1"/></g><g transform="translate(866.3333333333334,0)"><path fill="none" stroke="rgb(0,41,88)" paint-order="fill stroke markers" d=" M -1600 1000 L 800 -500" stroke-opacity="1" stroke-linecap="square" stroke-miterlimit="10" stroke-width="259.34999999999997"/><g transform="translate(-866.3333333333334,0)"><path fill="rgb(211,0,97)" stroke="none" paint-order="stroke fill markers" d=" M 160.00585970199225 320.23727844482585 C 160.00585970199225 288.6901041001895 185.57989747856797 263.1160663236138 217.1270718232043 263.1160663236138 C 248.6742461678406 263.1160663236138 274.24828394441636 288.6901041001895 274.24828394441636 320.23727844482585 C 274.24828394441636 351.7844527894622 248.6742461678406 377.35849056603786 217.1270718232043 377.35849056603786 C 185.57989747856797 377.35849056603786 160.00585970199225 351.7844527894622 160.00585970199225 320.23727844482585 Z" fill-opacity="1"/><g transform="translate(715,415) rotate(-90,0,0)"><path fill="rgb(136,0,67)" stroke="none" paint-order="stroke fill markers" d=" M 39 0 L 14.562305898749054 10.580134541264517 L 12.051662780622951 37.091204135510985 L -5.562305898749052 17.119017293312766 L -31.551662780622948 22.923624839406457 L -18 2.204364238465236e-15 L -31.55166278062295 -22.923624839406447 L -5.562305898749056 -17.119017293312762 L 12.051662780622943 -37.09120413551099 L 14.562305898749052 -10.58013454126452 L 39 0 L 39 0" fill-opacity="1"/></g></g></g></g></g></svg>