<svg version="1.1" xmlns="http://www.w3.org/2000/svg" xmlns:xlink="http://www.w3.org/1999/xlink" width="800" height="500" viewBox="0 0 800 500"><defs/><g/><g transform="scale(1,1)"><g><g transform="scale(1,1)"><rect fill="rgb(255,6,0)" stroke="none" x="0" y="0" width="800" height="500" fill-opacity="1"/></g><path fill="none" stroke="rgb(0,7,95)" paint-order="fill stroke markers" d=" M 487.5 0 L 487.5 500" stroke-opacity="1" stroke-linecap="square" stroke-miterlimit="10" stroke-width="216.43228039809605"/><path fill="rgb(213,0,89)" stroke="none" paint-order="stroke fill markers" d=" M 179.78014184397142 393.7500000000002 C 179.78014184397142 368.89718625900025 199.92732810297142 348.7500000000002 224.78014184397142 348.7500000000002 C 249.63295558497143 348.7500000000002 269.7801418439714 368.89718625900025 269.7801418439714 393.7500000000002 C 269.7801418439714 418.6028137410002 249.63295558497143 438.7500000000002 224.78014184397142 438.7500000000002 C 199.92732810297142 438.7500000000002 179.78014184397142 418.6028137410002 179.78014184397142 393.7500000000002 Z" fill-opacity="1"/><g transform="translate(715,415) rotate(-90,0,0)"><path fill="rgb(163,0,12)" stroke="none" paint-order="stroke fill markers" d=" M 46 0 L 14.142135623730951 14.14213562373095 L 2.8166876380389124e-15 46 L -14.14213562373095 14.142135623730951 L -46 5.633375276077825e-15 L -14.142135623730955 -14.14213562373095 L -8.450062914116736e-15 -46 L 14.142135623730947 -14.142135623730955 L 46 0 L 46 0" fill-opacity="1"/></g></g></g></svg>