<svg version="1.1" xmlns="http://www.w3.org/2000/svg" xmlns:xlink="http://www.w3.org/1999/xlink" width="800" height="500" viewBox="0 0 800 500"><defs/><g/><g transform="scale(1,1)"><g><g transform="scale(1,1)"><rect fill="rgb(255,250,0)" stroke="none" x="0" y="0" width="800" height="500" fill-opacity="1"/></g><g transform="translate(747.5000000000001,0)"><path fill="none" stroke="rgb(0,163,32)" paint-order="fill stroke markers" d=" M -1600 1000 L 800 -500" stroke-opacity="1" stroke-linecap="square" stroke-miterlimit="10" stroke-width="129.3812202509736"/><g transform="translate(-747.5000000000001,0)"><path fill="none" stroke="rgb(11,107,0)" paint-order="fill stroke markers" d=" M 342.4139264990327 350 C 342.4139264990327 312.3442216045454 372.9399662853964 281.81818181818176 410.59574468085094 281.81818181818176 C 448.2515230763055 281.81818181818176 478.7775628626692 312.3442216045454 478.7775628626692 350 C 478.7775628626692 387.6557783954546 448.2515230763055 418.18181818181824 410.59574468085094 418.18181818181824 C 372.9399662853964 418.18181818181824 342.4139264990327 387.6557783954546 342.4139264990327 350 Z" stroke-opacity="1" stroke-linecap="square" stroke-miterlimit="10" stroke-width="30"/><g transform="translate(715,415) rotate(-45,0,0)"><path fill="rgb(0,147,56)" stroke="none" paint-order="stroke fill markers" d=" M 46 0 L 13.435028842544403 13.435028842544401 L 2.8166876380389124e-15 46 L -13.435028842544401 13.435028842544403 L -46 5.633375276077825e-15 L -13.435028842544407 -13.435028842544401 L -8.450062914116736e-15 -46 L 13.4350288425444 -13.435028842544407 L 46 0 L 46 0" fill-opacity="1"/></g></g></g></g></g></svg>