<?xml version="1.0" encoding="utf-8"?>
<!-- Generator: Adobe Illustrator 21.0.2, SVG Export Plug-In . SVG Version: 6.00 Build 0)  -->
<svg version="1.1" id="Layer_1" xmlns="http://www.w3.org/2000/svg" xmlns:xlink="http://www.w3.org/1999/xlink" x="0px" y="0px"
	 viewBox="0 0 800 500" style="enable-background:new 0 0 800 500;" xml:space="preserve">
<style type="text/css">
	.st0{fill:#FF0004;}
	.st1{fill:none;stroke:#9C00FF;stroke-width:567.2875;stroke-linecap:square;stroke-miterlimit:10;}
	.st2{fill:#00036B;}
	.st3{fill:#A60000;}
</style>
<g transform="scale(1,1)">
	<g>
		<g transform="scale(1,1)">
			<rect class="st0" width="800" height="500"/>
		</g>
		<path class="st1" d="M367.1,0v500"/>
		<path class="st2" d="M357.2,256.5c0-48.5,39.3-87.9,87.9-87.9s87.9,39.3,87.9,87.9s-39.3,87.9-87.9,87.9S357.2,305,357.2,256.5z"
			/>
		<g transform="translate(715,85) rotate(-90,0,0)">
			<path class="st3" d="M39,0L15.6,9l3.9,24.8L0,18l-19.5,15.8L-15.6,9L-39,0l23.4-9l-3.9-24.8L0-18l19.5-15.8L15.6-9L39,0L15.6,9
				L39,0L39,0"/>
		</g>
	</g>
</g>
</svg>
