<svg version="1.1" xmlns="http://www.w3.org/2000/svg" xmlns:xlink="http://www.w3.org/1999/xlink" width="800" height="500" viewBox="0 0 800 500"><defs/><g/><g transform="scale(1,1)"><g><g transform="scale(1,1)"><rect fill="rgb(255,0,4)" stroke="none" x="0" y="0" width="800" height="500" fill-opacity="1"/></g><path fill="none" stroke="rgb(255,0,210)" paint-order="fill stroke markers" d=" M 260 0 L 260 500" stroke-opacity="1" stroke-linecap="square" stroke-miterlimit="10" stroke-width="511.3370835136305"/><path fill="rgb(26,0,141)" stroke="none" paint-order="stroke fill markers" d=" M 384.2940038684718 243.74999999999972 C 384.2940038684718 217.3909551231814 405.6622317189265 196.02272727272674 432.0212765957448 196.02272727272674 C 458.3803214725631 196.02272727272674 479.74854932301776 217.3909551231814 479.74854932301776 243.74999999999972 C 479.74854932301776 270.109044876818 458.3803214725631 291.47727272727263 432.0212765957448 291.47727272727263 C 405.6622317189265 291.47727272727263 384.2940038684718 270.109044876818 384.2940038684718 243.74999999999972 Z" fill-opacity="1"/><g transform="translate(715,85) rotate(-90,0,0)"><path fill="rgb(192,0,0)" stroke="none" paint-order="stroke fill markers" d=" M 46 0 L 17.320508075688775 9.999999999999998 L 23.000000000000004 39.837168574084174 L 1.2246467991473533e-15 20 L -22.99999999999999 39.83716857408418 L -17.32050807568877 10.000000000000007 L -46 5.633375276077825e-15 L -17.320508075688778 -9.999999999999995 L -23.00000000000002 -39.83716857408417 L -3.673940397442059e-15 -20 L 22.999999999999968 -39.837168574084195 L 17.320508075688767 -10.000000000000009 L 46 -5.2122957858361413e-14 L 17.32050807568878 9.999999999999986 L 46 0 L 46 0" fill-opacity="1"/></g></g></g></svg>