<svg version="1.1" xmlns="http://www.w3.org/2000/svg" xmlns:xlink="http://www.w3.org/1999/xlink" width="800" height="500" viewBox="0 0 800 500"><defs/><g/><g transform="scale(1,1)"><g><g transform="scale(1,1)"><rect fill="rgb(255,4,0)" stroke="none" x="0" y="0" width="800" height="500" fill-opacity="1"/></g><path fill="none" stroke="rgb(223,0,182)" paint-order="fill stroke markers" d=" M 335.00000000000006 0 L 335.00000000000006 500" stroke-opacity="1" stroke-linecap="square" stroke-miterlimit="10" stroke-width="650"/><path fill="rgb(71,0,41)" stroke="none" paint-order="stroke fill markers" d=" M 648.964539007092 306.2499999999998 C 648.964539007092 281.3971862589998 669.111725266092 261.2499999999998 693.964539007092 261.2499999999998 C 718.8173527480919 261.2499999999998 738.964539007092 281.3971862589998 738.964539007092 306.2499999999998 C 738.964539007092 331.10281374099975 718.8173527480919 351.2499999999998 693.964539007092 351.2499999999998 C 669.111725266092 351.2499999999998 648.964539007092 331.10281374099975 648.964539007092 306.2499999999998 Z" fill-opacity="1"/><g transform="translate(85,415) rotate(-90,0,0)"><path fill="rgb(123,0,252)" stroke="none" paint-order="stroke fill markers" d=" M 46 0 L 17.320508075688775 9.999999999999998 L 23.000000000000004 39.837168574084174 L 1.2246467991473533e-15 20 L -22.99999999999999 39.83716857408418 L -17.32050807568877 10.000000000000007 L -46 5.633375276077825e-15 L -17.320508075688778 -9.999999999999995 L -23.00000000000002 -39.83716857408417 L -3.673940397442059e-15 -20 L 22.999999999999968 -39.837168574084195 L 17.320508075688767 -10.000000000000009 L 46 -5.2122957858361413e-14 L 17.32050807568878 9.999999999999986 L 46 0 L 46 0" fill-opacity="1"/></g></g></g></svg>