<svg version="1.1" xmlns="http://www.w3.org/2000/svg" xmlns:xlink="http://www.w3.org/1999/xlink" width="800" height="500" viewBox="0 0 800 500"><defs/><g/><g transform="scale(1,1)"><g><g transform="scale(1,1)"><rect fill="rgb(255,3,0)" stroke="none" x="0" y="0" width="800" height="500" fill-opacity="1"/></g><path fill="none" stroke="rgb(237,0,147)" paint-order="fill stroke markers" d=" M 153.99999999999997 0 L 153.99999999999997 500" stroke-opacity="1" stroke-linecap="square" stroke-miterlimit="10" stroke-width="733.3625"/><path fill="rgb(65,0,4)" stroke="none" paint-order="stroke fill markers" d=" M 548.5091243931024 311.772441395083 C 548.5091243931024 272.94514989399215 579.9848631950417 241.46941109205287 618.8121546961326 241.46941109205287 C 657.6394461972234 241.46941109205287 689.1151849991627 272.94514989399215 689.1151849991627 311.772441395083 C 689.1151849991627 350.5997328961738 657.6394461972234 382.0754716981131 618.8121546961326 382.0754716981131 C 579.9848631950417 382.0754716981131 548.5091243931024 350.5997328961738 548.5091243931024 311.772441395083 Z" fill-opacity="1"/><g transform="translate(85,415) rotate(-90,0,0)"><path fill="rgb(6,0,232)" stroke="none" paint-order="stroke fill markers" d=" M 39 0 L 15.588457268119896 8.999999999999998 L 19.500000000000004 33.77499074759311 L 1.102182119232618e-15 18 L -19.499999999999993 33.77499074759311 L -15.588457268119893 9.000000000000005 L -39 4.776122516674678e-15 L -15.5884572681199 -8.999999999999995 L -19.500000000000018 -33.7749907475931 L -3.3065463576978533e-15 -18 L 19.499999999999975 -33.77499074759312 L 15.58845726811989 -9.000000000000007 L 39 -4.419120340165424e-14 L 15.588457268119903 8.999999999999988 L 39 0 L 39 0" fill-opacity="1"/></g></g></g></svg>