<svg version="1.1" xmlns="http://www.w3.org/2000/svg" xmlns:xlink="http://www.w3.org/1999/xlink" width="800" height="500" viewBox="0 0 800 500"><defs/><g/><g transform="scale(1,1)"><g><g transform="scale(1,1)"><rect fill="rgb(0,241,255)" stroke="none" x="0" y="0" width="800" height="500" fill-opacity="1"/></g><g transform="translate(863.7777777777777,0)"><path fill="none" stroke="rgb(0,91,63)" paint-order="fill stroke markers" d=" M -1600 1000 L 800 -500" stroke-opacity="1" stroke-linecap="square" stroke-miterlimit="10" stroke-width="129.67499999999998"/><g transform="translate(-863.7777777777777,0)"><path fill="none" stroke="rgb(68,98,0)" paint-order="fill stroke markers" d=" M 165.17913946090746 286.3779302458545 C 165.17913946090746 225.71028727539988 214.3599813389378 176.52944539736953 275.0276243093924 176.52944539736953 C 335.69526727984703 176.52944539736953 384.8761091578774 225.71028727539988 384.8761091578774 286.3779302458545 C 384.8761091578774 347.0455732163091 335.69526727984703 396.2264150943395 275.0276243093924 396.2264150943395 C 214.3599813389378 396.2264150943395 165.17913946090746 347.0455732163091 165.17913946090746 286.3779302458545 Z" stroke-opacity="1" stroke-linecap="square" stroke-miterlimit="10" stroke-width="30"/><g transform="translate(85,85) rotate(-90,0,0)"><path fill="rgb(0,127,109)" stroke="none" paint-order="stroke fill markers" d=" M 39 0 L 12.727922061357857 12.727922061357855 L 2.388061258337339e-15 39 L -12.727922061357855 12.727922061357857 L -39 4.776122516674678e-15 L -12.727922061357859 -12.727922061357855 L -7.164183775012016e-15 -39 L 12.727922061357852 -12.727922061357859 L 39 0 L 39 0" fill-opacity="1"/></g></g></g></g></g></svg>