<svg version="1.1" xmlns="http://www.w3.org/2000/svg" xmlns:xlink="http://www.w3.org/1999/xlink" width="800" height="500" viewBox="0 0 800 500"><defs/><g/><g transform="scale(1,1)"><g><g transform="scale(1,1)"><rect fill="rgb(129,255,0)" stroke="none" x="0" y="0" width="800" height="500" fill-opacity="1"/></g><path fill="none" stroke="rgb(56,185,0)" paint-order="fill stroke markers" d=" M 0 353.3333333333333 L 800 353.3333333333333" stroke-opacity="1" stroke-linecap="square" stroke-miterlimit="10" stroke-width="96.3625"/><path fill="none" stroke="rgb(26,71,0)" paint-order="fill stroke markers" d=" M 156.64825046040542 294.8427672955979 C 156.64825046040542 241.45524148159814 199.9273913130719 198.17610062893166 253.31491712707168 198.17610062893166 C 306.70244294107147 198.17610062893166 349.98158379373797 241.45524148159814 349.98158379373797 294.8427672955979 C 349.98158379373797 348.2302931095977 306.70244294107147 391.5094339622642 253.31491712707168 391.5094339622642 C 199.9273913130719 391.5094339622642 156.64825046040542 348.2302931095977 156.64825046040542 294.8427672955979 Z" stroke-opacity="1" stroke-linecap="square" stroke-miterlimit="10" stroke-width="30"/><g transform="translate(85,85) rotate(-90,0,0)"><path fill="rgb(0,134,9)" stroke="none" paint-order="stroke fill markers" d=" M 39 0 L 15.588457268119896 8.999999999999998 L 19.500000000000004 33.77499074759311 L 1.102182119232618e-15 18 L -19.499999999999993 33.77499074759311 L -15.588457268119893 9.000000000000005 L -39 4.776122516674678e-15 L -15.5884572681199 -8.999999999999995 L -19.500000000000018 -33.7749907475931 L -3.3065463576978533e-15 -18 L 19.499999999999975 -33.77499074759312 L 15.58845726811989 -9.000000000000007 L 39 -4.419120340165424e-14 L 15.588457268119903 8.999999999999988 L 39 0 L 39 0" fill-opacity="1"/></g></g></g></svg>