<svg version="1.1" xmlns="http://www.w3.org/2000/svg" xmlns:xlink="http://www.w3.org/1999/xlink" width="800" height="500" viewBox="0 0 800 500"><defs/><g/><g transform="scale(1,1)"><g><g transform="scale(1,1)"><rect fill="rgb(126,255,0)" stroke="none" x="0" y="0" width="800" height="500" fill-opacity="1"/></g><g transform="translate(677.6785714285714,0)"><path fill="none" stroke="rgb(24,193,0)" paint-order="fill stroke markers" d=" M -1600 1000 L 800 -500" stroke-opacity="1" stroke-linecap="square" stroke-miterlimit="10" stroke-width="74.39420164430983"/><g transform="translate(-677.6785714285714,0)"><path fill="none" stroke="rgb(11,114,0)" paint-order="fill stroke markers" d=" M 200.87943262411338 300.0000000000001 C 200.87943262411338 258.57864376500027 234.45807638911324 225.00000000000043 275.87943262411306 225.00000000000043 C 317.3007888591129 225.00000000000043 350.8794326241127 258.57864376500027 350.8794326241127 300.0000000000001 C 350.8794326241127 341.42135623499996 317.3007888591129 374.9999999999998 275.87943262411306 374.9999999999998 C 234.45807638911324 374.9999999999998 200.87943262411338 341.42135623499996 200.87943262411338 300.0000000000001 Z" stroke-opacity="1" stroke-linecap="square" stroke-miterlimit="10" stroke-width="30"/><g transform="translate(85,85) rotate(-90,0,0)"><path fill="rgb(0,158,34)" stroke="none" paint-order="stroke fill markers" d=" M 46 0 L 17.320508075688775 9.999999999999998 L 23.000000000000004 39.837168574084174 L 1.2246467991473533e-15 20 L -22.99999999999999 39.83716857408418 L -17.32050807568877 10.000000000000007 L -46 5.633375276077825e-15 L -17.320508075688778 -9.999999999999995 L -23.00000000000002 -39.83716857408417 L -3.673940397442059e-15 -20 L 22.999999999999968 -39.837168574084195 L 17.320508075688767 -10.000000000000009 L 46 -5.2122957858361413e-14 L 17.32050807568878 9.999999999999986 L 46 0 L 46 0" fill-opacity="1"/></g></g></g></g></g></svg>