<svg version="1.1" xmlns="http://www.w3.org/2000/svg" xmlns:xlink="http://www.w3.org/1999/xlink" width="800" height="500" viewBox="0 0 800 500"><defs/><g/><g transform="scale(1,1)"><g><g transform="scale(1,1)"><rect fill="rgb(24,255,0)" stroke="none" x="0" y="0" width="800" height="500" fill-opacity="1"/></g><g transform="translate(902.1111111111111,0)"><path fill="none" stroke="rgb(24,226,0)" paint-order="fill stroke markers" d=" M -1600 1000 L 800 -500" stroke-opacity="1" stroke-linecap="square" stroke-miterlimit="10" stroke-width="130.48749999999998"/><g transform="translate(-902.1111111111111,0)"><path fill="rgb(0,127,142)" stroke="none" paint-order="stroke fill markers" d=" M 407.1195379206432 327.53859348198966 C 407.1195379206432 276.57777338680796 448.43144509818865 235.26586620926255 499.39226519337035 235.26586620926255 C 550.353085288552 235.26586620926255 591.6649924660974 276.57777338680796 591.6649924660974 327.53859348198966 C 591.6649924660974 378.49941357717137 550.353085288552 419.8113207547168 499.39226519337035 419.8113207547168 C 448.43144509818865 419.8113207547168 407.1195379206432 378.49941357717137 407.1195379206432 327.53859348198966 Z" fill-opacity="1"/><g transform="translate(85,85) rotate(-90,0,0)"><path fill="rgb(0,102,166)" stroke="none" paint-order="stroke fill markers" d=" M 39 0 L 15.588457268119896 8.999999999999998 L 19.500000000000004 33.77499074759311 L 1.102182119232618e-15 18 L -19.499999999999993 33.77499074759311 L -15.588457268119893 9.000000000000005 L -39 4.776122516674678e-15 L -15.5884572681199 -8.999999999999995 L -19.500000000000018 -33.7749907475931 L -3.3065463576978533e-15 -18 L 19.499999999999975 -33.77499074759312 L 15.58845726811989 -9.000000000000007 L 39 -4.419120340165424e-14 L 15.588457268119903 8.999999999999988 L 39 0 L 39 0" fill-opacity="1"/></g></g></g></g></g></svg>