<svg version="1.1" xmlns="http://www.w3.org/2000/svg" xmlns:xlink="http://www.w3.org/1999/xlink" width="800" height="500" viewBox="0 0 800 500"><defs/><g/><g transform="scale(1,1)"><g><g transform="scale(1,1)"><rect fill="rgb(28,255,0)" stroke="none" x="0" y="0" width="800" height="500" fill-opacity="1"/></g><g transform="translate(833.7499999999999,0)"><path fill="none" stroke="rgb(0,234,0)" paint-order="fill stroke markers" d=" M -1600 1000 L 800 -500" stroke-opacity="1" stroke-linecap="square" stroke-miterlimit="10" stroke-width="102.09865858935525"/><g transform="translate(-833.7499999999999,0)"><path fill="rgb(0,148,162)" stroke="none" paint-order="stroke fill markers" d=" M 421.45712443584756 337.49999999999983 C 421.45712443584756 311.1409551231815 442.82535228630223 289.77272727272685 469.18439716312054 289.77272727272685 C 495.54344203993884 289.77272727272685 516.9116698903935 311.1409551231815 516.9116698903935 337.49999999999983 C 516.9116698903935 363.85904487681813 495.54344203993884 385.22727272727275 469.18439716312054 385.22727272727275 C 442.82535228630223 385.22727272727275 421.45712443584756 363.85904487681813 421.45712443584756 337.49999999999983 Z" fill-opacity="1"/><g transform="translate(85,85) rotate(-90,0,0)"><path fill="rgb(0,89,197)" stroke="none" paint-order="stroke fill markers" d=" M 46 0 L 17.320508075688775 9.999999999999998 L 23.000000000000004 39.837168574084174 L 1.2246467991473533e-15 20 L -22.99999999999999 39.83716857408418 L -17.32050807568877 10.000000000000007 L -46 5.633375276077825e-15 L -17.320508075688778 -9.999999999999995 L -23.00000000000002 -39.83716857408417 L -3.673940397442059e-15 -20 L 22.999999999999968 -39.837168574084195 L 17.320508075688767 -10.000000000000009 L 46 -5.2122957858361413e-14 L 17.32050807568878 9.999999999999986 L 46 0 L 46 0" fill-opacity="1"/></g></g></g></g></g></svg>