<svg version="1.1" xmlns="http://www.w3.org/2000/svg" xmlns:xlink="http://www.w3.org/1999/xlink" width="800" height="500" viewBox="0 0 800 500"><defs/><g/><g transform="scale(1,1)"><g><g transform="scale(1,1)"><rect fill="rgb(168,158,0)" stroke="none" x="0" y="0" width="800" height="500" fill-opacity="1"/></g><path fill="none" stroke="rgb(201,121,0)" paint-order="fill stroke markers" d=" M 0 424.44444444444446 L 800 424.44444444444446" stroke-opacity="1" stroke-linecap="square" stroke-miterlimit="10" stroke-width="50.375"/><path fill="none" stroke="rgb(61,123,0)" paint-order="fill stroke markers" d=" M 281.4984095094597 268.80217267009726 C 281.4984095094597 198.42770682437015 338.5481860879747 141.3779302458551 408.92265193370184 141.3779302458551 C 479.29711777942896 141.3779302458551 536.346894357944 198.42770682437015 536.346894357944 268.80217267009726 C 536.346894357944 339.1766385158244 479.29711777942896 396.2264150943395 408.92265193370184 396.2264150943395 C 338.5481860879747 396.2264150943395 281.4984095094597 339.1766385158244 281.4984095094597 268.80217267009726 Z" stroke-opacity="1" stroke-linecap="square" stroke-miterlimit="10" stroke-width="30"/><g transform="translate(85,85) rotate(-90,0,0)"><path fill="rgb(0,70,85)" stroke="none" paint-order="stroke fill markers" d=" M 39 0 L 12.727922061357857 12.727922061357855 L 2.388061258337339e-15 39 L -12.727922061357855 12.727922061357857 L -39 4.776122516674678e-15 L -12.727922061357859 -12.727922061357855 L -7.164183775012016e-15 -39 L 12.727922061357852 -12.727922061357859 L 39 0 L 39 0" fill-opacity="1"/></g></g></g></svg>