<svg version="1.1" xmlns="http://www.w3.org/2000/svg" xmlns:xlink="http://www.w3.org/1999/xlink" width="800" height="500" viewBox="0 0 800 500"><defs/><g/><g transform="scale(1,1)"><g><g transform="scale(1,1)"><rect fill="rgb(255,92,0)" stroke="none" x="0" y="0" width="800" height="500" fill-opacity="1"/></g><path fill="none" stroke="rgb(202,162,0)" paint-order="fill stroke markers" d=" M 0 326.0470111887248 L 800 326.0470111887248" stroke-opacity="1" stroke-linecap="square" stroke-miterlimit="10" stroke-width="58.595845954132415"/><path fill="none" stroke="rgb(0,177,21)" paint-order="fill stroke markers" d=" M 479.7130883301088 307.3863636363642 L 366.9858156028367 420.1136363636363 L 254.25854287556456 307.3863636363642 L 366.9858156028367 194.65909090909207 L 479.7130883301088 307.3863636363642 L 479.7130883301088 307.3863636363642" stroke-opacity="1" stroke-linecap="square" stroke-miterlimit="10" stroke-width="30"/><g transform="translate(715,415) rotate(-90,0,0)"><path fill="rgb(94,0,193)" stroke="none" paint-order="stroke fill markers" d=" M 46 0 L 17.320508075688775 9.999999999999998 L 23.000000000000004 39.837168574084174 L 1.2246467991473533e-15 20 L -22.99999999999999 39.83716857408418 L -17.32050807568877 10.000000000000007 L -46 5.633375276077825e-15 L -17.320508075688778 -9.999999999999995 L -23.00000000000002 -39.83716857408417 L -3.673940397442059e-15 -20 L 22.999999999999968 -39.837168574084195 L 17.320508075688767 -10.000000000000009 L 46 -5.2122957858361413e-14 L 17.32050807568878 9.999999999999986 L 46 0 L 46 0" fill-opacity="1"/></g></g></g></svg>