<svg version="1.1" xmlns="http://www.w3.org/2000/svg" xmlns:xlink="http://www.w3.org/1999/xlink" width="800" height="500" viewBox="0 0 800 500"><defs/><g/><g transform="scale(1,1)"><g><g transform="scale(1,1)"><rect fill="rgb(127,81,0)" stroke="none" x="0" y="0" width="800" height="500" fill-opacity="1"/></g><g transform="translate(792.6785714285712,0)"><path fill="none" stroke="rgb(155,145,0)" paint-order="fill stroke markers" d=" M -1600 1000 L 800 -500" stroke-opacity="1" stroke-linecap="square" stroke-miterlimit="10" stroke-width="62.01860666378192"/><g transform="translate(-792.6785714285712,0)"><path fill="none" stroke="rgb(45,25,0)" paint-order="fill stroke markers" d=" M 348.93230174081214 187.50000000000023 C 348.93230174081214 161.14095512318193 370.3005295912668 139.77272727272725 396.6595744680851 139.77272727272725 C 423.0186193449034 139.77272727272725 444.3868471953581 161.14095512318193 444.3868471953581 187.50000000000023 C 444.3868471953581 213.85904487681853 423.0186193449034 235.22727272727317 396.6595744680851 235.22727272727317 C 370.3005295912668 235.22727272727317 348.93230174081214 213.85904487681853 348.93230174081214 187.50000000000023 Z" stroke-opacity="1" stroke-linecap="square" stroke-miterlimit="10" stroke-width="30"/><g transform="translate(85,85) rotate(-45,0,0)"><path fill="rgb(86,96,0)" stroke="none" paint-order="stroke fill markers" d=" M 46 0 L 13.435028842544403 13.435028842544401 L 2.8166876380389124e-15 46 L -13.435028842544401 13.435028842544403 L -46 5.633375276077825e-15 L -13.435028842544407 -13.435028842544401 L -8.450062914116736e-15 -46 L 13.4350288425444 -13.435028842544407 L 46 0 L 46 0" fill-opacity="1"/></g></g></g></g></g></svg>