<svg version="1.1" xmlns="http://www.w3.org/2000/svg" xmlns:xlink="http://www.w3.org/1999/xlink" width="800" height="500" viewBox="0 0 800 500"><defs/><g/><g transform="scale(1,1)"><g><g transform="scale(1,1)"><rect fill="rgb(111,13,0)" stroke="none" x="0" y="0" width="800" height="500" fill-opacity="1"/></g><g transform="translate(1047.7777777777778,0)"><path fill="none" stroke="rgb(0,0,0)" paint-order="fill stroke markers" d=" M -1600 1000 L 800 -500" stroke-opacity="1" stroke-linecap="square" stroke-miterlimit="10" stroke-width="130.48749999999998"/><g transform="translate(-1047.7777777777778,0)"><path fill="none" stroke="rgb(47,146,0)" paint-order="fill stroke markers" d=" M 597.3480662983422 166.320754716981 L 452.3480662983423 311.320754716981 L 307.3480662983423 166.32075471698104 L 452.3480662983423 21.320754716981014 L 597.3480662983422 166.320754716981 L 597.3480662983422 166.320754716981" stroke-opacity="1" stroke-linecap="square" stroke-miterlimit="10" stroke-width="30"/><g transform="translate(85,85) rotate(-90,0,0)"><path fill="rgb(151,0,147)" stroke="none" paint-order="stroke fill markers" d=" M 39 0 L 14.562305898749054 10.580134541264517 L 12.051662780622951 37.091204135510985 L -5.562305898749052 17.119017293312766 L -31.551662780622948 22.923624839406457 L -18 2.204364238465236e-15 L -31.55166278062295 -22.923624839406447 L -5.562305898749056 -17.119017293312762 L 12.051662780622943 -37.09120413551099 L 14.562305898749052 -10.58013454126452 L 39 0 L 39 0" fill-opacity="1"/></g></g></g></g></g></svg>