<svg version="1.1" xmlns="http://www.w3.org/2000/svg" xmlns:xlink="http://www.w3.org/1999/xlink" width="800" height="500" viewBox="0 0 800 500"><defs/><g/><g transform="scale(1,1)"><g><g transform="scale(1,1)"><rect fill="rgb(255,214,0)" stroke="none" x="0" y="0" width="800" height="500" fill-opacity="1"/></g><path fill="none" stroke="rgb(161,0,223)" paint-order="fill stroke markers" d=" M 522.5000000000001 0 L 522.5000000000001 500" stroke-opacity="1" stroke-linecap="square" stroke-miterlimit="10" stroke-width="271.41929900475986"/><path fill="rgb(216,0,4)" stroke="none" paint-order="stroke fill markers" d=" M 405.94777562862663 350 C 405.94777562862663 304.8130659254544 442.5790233722631 268.1818181818179 487.7659574468087 268.1818181818179 C 532.9528915213543 268.1818181818179 569.5841392649908 304.8130659254544 569.5841392649908 350 C 569.5841392649908 395.1869340745456 532.9528915213543 431.8181818181821 487.7659574468087 431.8181818181821 C 442.5790233722631 431.8181818181821 405.94777562862663 395.1869340745456 405.94777562862663 350 Z" fill-opacity="1"/><g transform="translate(85,415) rotate(-90,0,0)"><path fill="rgb(52,0,197)" stroke="none" paint-order="stroke fill markers" d=" M 46 0 L 17.320508075688775 9.999999999999998 L 23.000000000000004 39.837168574084174 L 1.2246467991473533e-15 20 L -22.99999999999999 39.83716857408418 L -17.32050807568877 10.000000000000007 L -46 5.633375276077825e-15 L -17.320508075688778 -9.999999999999995 L -23.00000000000002 -39.83716857408417 L -3.673940397442059e-15 -20 L 22.999999999999968 -39.837168574084195 L 17.320508075688767 -10.000000000000009 L 46 -5.2122957858361413e-14 L 17.32050807568878 9.999999999999986 L 46 0 L 46 0" fill-opacity="1"/></g></g></g></svg>