<svg version="1.1" xmlns="http://www.w3.org/2000/svg" xmlns:xlink="http://www.w3.org/1999/xlink" width="800" height="500" viewBox="0 0 800 500"><defs/><g/><g transform="scale(1,1)"><g><g transform="scale(1,1)"><rect fill="rgb(255,246,0)" stroke="none" x="0" y="0" width="800" height="500" fill-opacity="1"/></g><path fill="none" stroke="rgb(0,101,223)" paint-order="fill stroke markers" d=" M 493.11111111111114 0 L 493.11111111111114 500" stroke-opacity="1" stroke-linecap="square" stroke-miterlimit="10" stroke-width="409.66249999999997"/><path fill="rgb(186,0,175)" stroke="none" paint-order="stroke fill markers" d=" M 536.3636363636367 235.1372212692973 C 536.3636363636367 169.6161668612066 589.4789455919093 116.50085763293406 655 116.50085763293406 C 720.5210544080907 116.50085763293406 773.6363636363632 169.6161668612066 773.6363636363632 235.1372212692973 C 773.6363636363632 300.658275677388 720.5210544080907 353.7735849056605 655 353.7735849056605 C 589.4789455919093 353.7735849056605 536.3636363636367 300.658275677388 536.3636363636367 235.1372212692973 Z" fill-opacity="1"/><g transform="translate(85,415) rotate(-90,0,0)"><path fill="rgb(52,0,219)" stroke="none" paint-order="stroke fill markers" d=" M 39 0 L 15.588457268119896 8.999999999999998 L 19.500000000000004 33.77499074759311 L 1.102182119232618e-15 18 L -19.499999999999993 33.77499074759311 L -15.588457268119893 9.000000000000005 L -39 4.776122516674678e-15 L -15.5884572681199 -8.999999999999995 L -19.500000000000018 -33.7749907475931 L -3.3065463576978533e-15 -18 L 19.499999999999975 -33.77499074759312 L 15.58845726811989 -9.000000000000007 L 39 -4.419120340165424e-14 L 15.588457268119903 8.999999999999988 L 39 0 L 39 0" fill-opacity="1"/></g></g></g></svg>