<svg version="1.1" xmlns="http://www.w3.org/2000/svg" xmlns:xlink="http://www.w3.org/1999/xlink" width="800" height="500" viewBox="0 0 800 500"><defs/><g/><g transform="scale(1,1)"><g><g transform="scale(1,1)"><rect fill="rgb(255,246,0)" stroke="none" x="0" y="0" width="800" height="500" fill-opacity="1"/></g><path fill="none" stroke="rgb(0,66,230)" paint-order="fill stroke markers" d=" M 425 0 L 425 500" stroke-opacity="1" stroke-linecap="square" stroke-miterlimit="10" stroke-width="355.7983556901774"/><path fill="rgb(205,0,124)" stroke="none" paint-order="stroke fill markers" d=" M 763.181818181818 197.15909090909088 L 655 305.3409090909089 L 546.818181818182 197.15909090909088 L 655 88.97727272727285 L 763.181818181818 197.15909090909088 L 763.181818181818 197.15909090909088" fill-opacity="1"/><g transform="translate(85,415) rotate(-90,0,0)"><path fill="rgb(107,0,248)" stroke="none" paint-order="stroke fill markers" d=" M 46 0 L 17.320508075688775 9.999999999999998 L 23.000000000000004 39.837168574084174 L 1.2246467991473533e-15 20 L -22.99999999999999 39.83716857408418 L -17.32050807568877 10.000000000000007 L -46 5.633375276077825e-15 L -17.320508075688778 -9.999999999999995 L -23.00000000000002 -39.83716857408417 L -3.673940397442059e-15 -20 L 22.999999999999968 -39.837168574084195 L 17.320508075688767 -10.000000000000009 L 46 -5.2122957858361413e-14 L 17.32050807568878 9.999999999999986 L 46 0 L 46 0" fill-opacity="1"/></g></g></g></svg>