<svg version="1.1" xmlns="http://www.w3.org/2000/svg" xmlns:xlink="http://www.w3.org/1999/xlink" width="800" height="500" viewBox="0 0 800 500"><defs/><g/><g transform="scale(1,1)"><g><g transform="scale(1,1)"><rect fill="rgb(129,233,0)" stroke="none" x="0" y="0" width="800" height="500" fill-opacity="1"/></g><path fill="none" stroke="rgb(147,136,0)" paint-order="fill stroke markers" d=" M 0 448.8888888888889 L 800 448.8888888888889" stroke-opacity="1" stroke-linecap="square" stroke-miterlimit="10" stroke-width="60.9375"/><path fill="none" stroke="rgb(38,96,0)" paint-order="fill stroke markers" d=" M 438.9134438305714 247.67295597484318 C 438.9134438305714 194.28543016084342 482.1925846832379 151.00628930817692 535.5801104972377 151.00628930817692 C 588.9676363112375 151.00628930817692 632.246777163904 194.28543016084342 632.246777163904 247.67295597484318 C 632.246777163904 301.06048178884294 588.9676363112375 344.33962264150944 535.5801104972377 344.33962264150944 C 482.1925846832379 344.33962264150944 438.9134438305714 301.06048178884294 438.9134438305714 247.67295597484318 Z" stroke-opacity="1" stroke-linecap="square" stroke-miterlimit="10" stroke-width="30"/><g transform="translate(715,85) rotate(-90,0,0)"><path fill="rgb(19,0,104)" stroke="none" paint-order="stroke fill markers" d=" M 39 0 L 12.727922061357857 12.727922061357855 L 2.388061258337339e-15 39 L -12.727922061357855 12.727922061357857 L -39 4.776122516674678e-15 L -12.727922061357859 -12.727922061357855 L -7.164183775012016e-15 -39 L 12.727922061357852 -12.727922061357859 L 39 0 L 39 0" fill-opacity="1"/></g></g></g></svg>