<svg version="1.1" xmlns="http://www.w3.org/2000/svg" xmlns:xlink="http://www.w3.org/1999/xlink" width="800" height="500" viewBox="0 0 800 500"><defs/><g/><g transform="scale(1,1)"><g><g transform="scale(1,1)"><rect fill="rgb(141,255,0)" stroke="none" x="0" y="0" width="800" height="500" fill-opacity="1"/></g><path fill="none" stroke="rgb(161,164,0)" paint-order="fill stroke markers" d=" M 0 405.0959695864498 L 800 405.0959695864498" stroke-opacity="1" stroke-linecap="square" stroke-miterlimit="10" stroke-width="61.68974469926439"/><path fill="none" stroke="rgb(35,130,0)" paint-order="fill stroke markers" d=" M 556.1018697614439 243.74999999999972 C 556.1018697614439 206.09422160454514 586.6279095478076 175.56818181818147 624.2836879432622 175.56818181818147 C 661.9394663387168 175.56818181818147 692.4655061250804 206.09422160454514 692.4655061250804 243.74999999999972 C 692.4655061250804 281.40577839545426 661.9394663387168 311.93181818181796 624.2836879432622 311.93181818181796 C 586.6279095478076 311.93181818181796 556.1018697614439 281.40577839545426 556.1018697614439 243.74999999999972 Z" stroke-opacity="1" stroke-linecap="square" stroke-miterlimit="10" stroke-width="30"/><g transform="translate(715,415) rotate(-90,0,0)"><path fill="rgb(57,0,131)" stroke="none" paint-order="stroke fill markers" d=" M 46 0 L 14.142135623730951 14.14213562373095 L 2.8166876380389124e-15 46 L -14.14213562373095 14.142135623730951 L -46 5.633375276077825e-15 L -14.142135623730955 -14.14213562373095 L -8.450062914116736e-15 -46 L 14.142135623730947 -14.142135623730955 L 46 0 L 46 0" fill-opacity="1"/></g></g></g></svg>