<svg version="1.1" xmlns="http://www.w3.org/2000/svg" xmlns:xlink="http://www.w3.org/1999/xlink" width="800" height="500" viewBox="0 0 800 500"><defs/><g/><g transform="scale(1,1)"><g><g transform="scale(1,1)"><rect fill="rgb(255,194,0)" stroke="none" x="0" y="0" width="800" height="500" fill-opacity="1"/></g><g transform="translate(1045.2222222222224,0)"><path fill="none" stroke="rgb(99,217,0)" paint-order="fill stroke markers" d=" M -1600 1000 L 800 -500" stroke-opacity="1" stroke-linecap="square" stroke-miterlimit="10" stroke-width="162.5"/><g transform="translate(-1045.2222222222224,0)"><path fill="rgb(0,43,213)" stroke="none" paint-order="stroke fill markers" d=" M 756.0564205591825 280.8204688393369 L 593.4806629834253 443.39622641509413 L 430.9049054076681 280.8204688393369 L 593.4806629834253 118.24471126357969 L 756.0564205591825 280.8204688393369 L 756.0564205591825 280.8204688393369" fill-opacity="1"/><g transform="translate(715,85) rotate(-90,0,0)"><path fill="rgb(215,0,83)" stroke="none" paint-order="stroke fill markers" d=" M 39 0 L 15.588457268119896 8.999999999999998 L 19.500000000000004 33.77499074759311 L 1.102182119232618e-15 18 L -19.499999999999993 33.77499074759311 L -15.588457268119893 9.000000000000005 L -39 4.776122516674678e-15 L -15.5884572681199 -8.999999999999995 L -19.500000000000018 -33.7749907475931 L -3.3065463576978533e-15 -18 L 19.499999999999975 -33.77499074759312 L 15.58845726811989 -9.000000000000007 L 39 -4.419120340165424e-14 L 15.588457268119903 8.999999999999988 L 39 0 L 39 0" fill-opacity="1"/></g></g></g></g></g></svg>