<svg version="1.1" xmlns="http://www.w3.org/2000/svg" xmlns:xlink="http://www.w3.org/1999/xlink" width="800" height="500" viewBox="0 0 800 500"><defs/><g/><g transform="scale(1,1)"><g><g transform="scale(1,1)"><rect fill="rgb(16,6,0)" stroke="none" x="0" y="0" width="800" height="500" fill-opacity="1"/></g><path fill="none" stroke="rgb(141,49,0)" paint-order="fill stroke markers" d=" M 0 398.21428571428567 L 800 398.21428571428567" stroke-opacity="1" stroke-linecap="square" stroke-miterlimit="10" stroke-width="15"/><path fill="none" stroke="rgb(36,0,0)" paint-order="fill stroke markers" d=" M 299.7059961315286 162.4999999999998 C 299.7059961315286 147.43768864181828 311.91641204607384 135.2272727272731 326.97872340425533 135.2272727272731 C 342.0410347624368 135.2272727272731 354.251450676982 147.43768864181828 354.251450676982 162.4999999999998 C 354.251450676982 177.56231135818132 342.0410347624368 189.7727272727265 326.97872340425533 189.7727272727265 C 311.91641204607384 189.7727272727265 299.7059961315286 177.56231135818132 299.7059961315286 162.4999999999998 Z" stroke-opacity="1" stroke-linecap="square" stroke-miterlimit="10" stroke-width="30"/><g transform="translate(715,85) rotate(-45,0,0)"><path fill="rgb(66,62,0)" stroke="none" paint-order="stroke fill markers" d=" M 46 0 L 13.435028842544403 13.435028842544401 L 2.8166876380389124e-15 46 L -13.435028842544401 13.435028842544403 L -46 5.633375276077825e-15 L -13.435028842544407 -13.435028842544401 L -8.450062914116736e-15 -46 L 13.4350288425444 -13.435028842544407 L 46 0 L 46 0" fill-opacity="1"/></g></g></g></svg>