<svg version="1.1" xmlns="http://www.w3.org/2000/svg" xmlns:xlink="http://www.w3.org/1999/xlink" width="800" height="500" viewBox="0 0 800 500"><defs/><g/><g transform="scale(1,1)"><g><g transform="scale(1,1)"><rect fill="rgb(255,93,0)" stroke="none" x="0" y="0" width="800" height="500" fill-opacity="1"/></g><g transform="translate(406.6071428571428,0)"><path fill="none" stroke="rgb(0,180,71)" paint-order="fill stroke markers" d=" M -1600 1000 L 800 -500" stroke-opacity="1" stroke-linecap="square" stroke-miterlimit="10" stroke-width="176.63349199480746"/><g transform="translate(-406.6071428571428,0)"><path fill="none" stroke="rgb(0,149,24)" paint-order="fill stroke markers" d=" M 304.6511927788523 375.0000000000004 C 304.6511927788523 352.40653296272785 322.9668166506703 334.09090909090986 345.56028368794284 334.09090909090986 C 368.1537507252154 334.09090909090986 386.46937459703344 352.40653296272785 386.46937459703344 375.0000000000004 C 386.46937459703344 397.59346703727294 368.1537507252154 415.909090909091 345.56028368794284 415.909090909091 C 322.9668166506703 415.909090909091 304.6511927788523 397.59346703727294 304.6511927788523 375.0000000000004 Z" stroke-opacity="1" stroke-linecap="square" stroke-miterlimit="10" stroke-width="30"/><g transform="translate(715,415) rotate(-45,0,0)"><path fill="rgb(1,98,0)" stroke="none" paint-order="stroke fill markers" d=" M 46 0 L 13.435028842544403 13.435028842544401 L 2.8166876380389124e-15 46 L -13.435028842544401 13.435028842544403 L -46 5.633375276077825e-15 L -13.435028842544407 -13.435028842544401 L -8.450062914116736e-15 -46 L 13.4350288425444 -13.435028842544407 L 46 0 L 46 0" fill-opacity="1"/></g></g></g></g></g></svg>