<svg version="1.1" xmlns="http://www.w3.org/2000/svg" xmlns:xlink="http://www.w3.org/1999/xlink" width="800" height="500" viewBox="0 0 800 500"><defs/><g/><g transform="scale(1,1)"><g><g transform="scale(1,1)"><rect fill="rgb(0,255,250)" stroke="none" x="0" y="0" width="800" height="500" fill-opacity="1"/></g><g transform="translate(590.3333333333334,0)"><path fill="none" stroke="rgb(0,76,195)" paint-order="fill stroke markers" d=" M -1600 1000 L 800 -500" stroke-opacity="1" stroke-linecap="square" stroke-miterlimit="10" stroke-width="314.4375"/><g transform="translate(-590.3333333333334,0)"><path fill="rgb(0,70,105)" stroke="none" paint-order="stroke fill markers" d=" M 389.54378034488536 225.05717552887344 C 389.54378034488536 164.38953255841884 438.72462222291574 115.20869068038849 499.39226519337035 115.20869068038849 C 560.059908163825 115.20869068038849 609.2407500418553 164.38953255841884 609.2407500418553 225.05717552887344 C 609.2407500418553 285.724818499328 560.059908163825 334.9056603773584 499.39226519337035 334.9056603773584 C 438.72462222291574 334.9056603773584 389.54378034488536 285.724818499328 389.54378034488536 225.05717552887344 Z" fill-opacity="1"/><g transform="translate(85,415) rotate(-90,0,0)"><path fill="rgb(0,161,2)" stroke="none" paint-order="stroke fill markers" d=" M 39 0 L 15.588457268119896 8.999999999999998 L 19.500000000000004 33.77499074759311 L 1.102182119232618e-15 18 L -19.499999999999993 33.77499074759311 L -15.588457268119893 9.000000000000005 L -39 4.776122516674678e-15 L -15.5884572681199 -8.999999999999995 L -19.500000000000018 -33.7749907475931 L -3.3065463576978533e-15 -18 L 19.499999999999975 -33.77499074759312 L 15.58845726811989 -9.000000000000007 L 39 -4.419120340165424e-14 L 15.588457268119903 8.999999999999988 L 39 0 L 39 0" fill-opacity="1"/></g></g></g></g></g></svg>