<svg version="1.1" xmlns="http://www.w3.org/2000/svg" xmlns:xlink="http://www.w3.org/1999/xlink" width="800" height="500" viewBox="0 0 800 500"><defs/><g/><g transform="scale(1,1)"><g><g transform="scale(1,1)"><rect fill="rgb(179,255,0)" stroke="none" x="0" y="0" width="800" height="500" fill-opacity="1"/></g><g transform="translate(843.3333333333334,0)"><path fill="none" stroke="rgb(0,19,204)" paint-order="fill stroke markers" d=" M -1600 1000 L 800 -500" stroke-opacity="1" stroke-linecap="square" stroke-miterlimit="10" stroke-width="361.72499999999997"/><g transform="translate(-843.3333333333334,0)"><path fill="rgb(201,0,132)" stroke="none" paint-order="stroke fill markers" d=" M 340.43110664657615 323.4676958261866 C 340.43110664657615 267.6534642933685 385.677481174364 222.4070897655806 441.49171270718216 222.4070897655806 C 497.3059442400003 222.4070897655806 542.5523187677882 267.6534642933685 542.5523187677882 323.4676958261866 C 542.5523187677882 379.2819273590048 497.3059442400003 424.52830188679263 441.49171270718216 424.52830188679263 C 385.677481174364 424.52830188679263 340.43110664657615 379.2819273590048 340.43110664657615 323.4676958261866 Z" fill-opacity="1"/><g transform="translate(85,415) rotate(-90,0,0)"><path fill="rgb(0,77,223)" stroke="none" paint-order="stroke fill markers" d=" M 39 0 L 15.588457268119896 8.999999999999998 L 19.500000000000004 33.77499074759311 L 1.102182119232618e-15 18 L -19.499999999999993 33.77499074759311 L -15.588457268119893 9.000000000000005 L -39 4.776122516674678e-15 L -15.5884572681199 -8.999999999999995 L -19.500000000000018 -33.7749907475931 L -3.3065463576978533e-15 -18 L 19.499999999999975 -33.77499074759312 L 15.58845726811989 -9.000000000000007 L 39 -4.419120340165424e-14 L 15.588457268119903 8.999999999999988 L 39 0 L 39 0" fill-opacity="1"/></g></g></g></g></g></svg>