<svg version="1.1" xmlns="http://www.w3.org/2000/svg" xmlns:xlink="http://www.w3.org/1999/xlink" width="800" height="500" viewBox="0 0 800 500"><defs/><g/><g transform="scale(1,1)"><g><g transform="scale(1,1)"><rect fill="rgb(255,59,0)" stroke="none" x="0" y="0" width="800" height="500" fill-opacity="1"/></g><path fill="none" stroke="rgb(125,98,0)" paint-order="fill stroke markers" d=" M 0 416.66666666666663 L 800 416.66666666666663" stroke-opacity="1" stroke-linecap="square" stroke-miterlimit="10" stroke-width="104.1625"/><path fill="none" stroke="rgb(0,0,0)" paint-order="fill stroke markers" d=" M 260.8178469780678 214.97712978845018 C 260.8178469780678 159.16289825563203 306.06422150585564 113.91652372784415 361.8784530386738 113.91652372784415 C 417.69268457149195 113.91652372784415 462.93905909927986 159.16289825563203 462.93905909927986 214.97712978845018 C 462.93905909927986 270.79136132126837 417.69268457149195 316.0377358490562 361.8784530386738 316.0377358490562 C 306.06422150585564 316.0377358490562 260.8178469780678 270.79136132126837 260.8178469780678 214.97712978845018 Z" stroke-opacity="1" stroke-linecap="square" stroke-miterlimit="10" stroke-width="30"/><g transform="translate(715,85) rotate(-90,0,0)"><path fill="rgb(40,55,0)" stroke="none" paint-order="stroke fill markers" d=" M 39 0 L 15.588457268119896 8.999999999999998 L 19.500000000000004 33.77499074759311 L 1.102182119232618e-15 18 L -19.499999999999993 33.77499074759311 L -15.588457268119893 9.000000000000005 L -39 4.776122516674678e-15 L -15.5884572681199 -8.999999999999995 L -19.500000000000018 -33.7749907475931 L -3.3065463576978533e-15 -18 L 19.499999999999975 -33.77499074759312 L 15.58845726811989 -9.000000000000007 L 39 -4.419120340165424e-14 L 15.588457268119903 8.999999999999988 L 39 0 L 39 0" fill-opacity="1"/></g></g></g></svg>