<svg version="1.1" xmlns="http://www.w3.org/2000/svg" xmlns:xlink="http://www.w3.org/1999/xlink" width="800" height="500" viewBox="0 0 800 500"><defs/><g/><g transform="scale(1,1)"><g><g transform="scale(1,1)"><rect fill="rgb(255,59,0)" stroke="none" x="0" y="0" width="800" height="500" fill-opacity="1"/></g><g transform="translate(920.0000000000002,0)"><path fill="none" stroke="rgb(129,118,0)" paint-order="fill stroke markers" d=" M -1600 1000 L 800 -500" stroke-opacity="1" stroke-linecap="square" stroke-miterlimit="10" stroke-width="75.37862397230636"/><g transform="translate(-920.0000000000002,0)"><path fill="none" stroke="rgb(52,42,0)" paint-order="fill stroke markers" d=" M 413.6679561573176 262.50000000000045 C 413.6679561573176 243.67211080227315 428.9309760504994 228.40909090909133 447.7588652482267 228.40909090909133 C 466.586754445954 228.40909090909133 481.8497743391358 243.67211080227315 481.8497743391358 262.50000000000045 C 481.8497743391358 281.32788919772776 466.586754445954 296.5909090909096 447.7588652482267 296.5909090909096 C 428.9309760504994 296.5909090909096 413.6679561573176 281.32788919772776 413.6679561573176 262.50000000000045 Z" stroke-opacity="1" stroke-linecap="square" stroke-miterlimit="10" stroke-width="30"/><g transform="translate(715,415) rotate(-90,0,0)"><path fill="rgb(34,101,0)" stroke="none" paint-order="stroke fill markers" d=" M 46 0 L 17.320508075688775 9.999999999999998 L 23.000000000000004 39.837168574084174 L 1.2246467991473533e-15 20 L -22.99999999999999 39.83716857408418 L -17.32050807568877 10.000000000000007 L -46 5.633375276077825e-15 L -17.320508075688778 -9.999999999999995 L -23.00000000000002 -39.83716857408417 L -3.673940397442059e-15 -20 L 22.999999999999968 -39.837168574084195 L 17.320508075688767 -10.000000000000009 L 46 -5.2122957858361413e-14 L 17.32050807568878 9.999999999999986 L 46 0 L 46 0" fill-opacity="1"/></g></g></g></g></g></svg>