<svg version="1.1" xmlns="http://www.w3.org/2000/svg" xmlns:xlink="http://www.w3.org/1999/xlink" width="800" height="500" viewBox="0 0 800 500"><defs/><g/><g transform="scale(1,1)"><g><g transform="scale(1,1)"><rect fill="rgb(180,255,0)" stroke="none" x="0" y="0" width="800" height="500" fill-opacity="1"/></g><path fill="none" stroke="rgb(41,0,209)" paint-order="fill stroke markers" d=" M 455.00000000000006 0 L 455.00000000000006 500" stroke-opacity="1" stroke-linecap="square" stroke-miterlimit="10" stroke-width="301.3738641280831"/><path fill="rgb(205,0,96)" stroke="none" paint-order="stroke fill markers" d=" M 338.1399097356549 362.5000000000001 C 338.1399097356549 328.6097994440913 365.6133455433819 301.1363636363643 399.5035460992907 301.1363636363643 C 433.3937466551995 301.1363636363643 460.86718246292656 328.6097994440913 460.86718246292656 362.5000000000001 C 460.86718246292656 396.3902005559089 433.3937466551995 423.863636363636 399.5035460992907 423.863636363636 C 365.6133455433819 423.863636363636 338.1399097356549 396.3902005559089 338.1399097356549 362.5000000000001 Z" fill-opacity="1"/><g transform="translate(85,415) rotate(-90,0,0)"><path fill="rgb(0,44,247)" stroke="none" paint-order="stroke fill markers" d=" M 46 0 L 17.320508075688775 9.999999999999998 L 23.000000000000004 39.837168574084174 L 1.2246467991473533e-15 20 L -22.99999999999999 39.83716857408418 L -17.32050807568877 10.000000000000007 L -46 5.633375276077825e-15 L -17.320508075688778 -9.999999999999995 L -23.00000000000002 -39.83716857408417 L -3.673940397442059e-15 -20 L 22.999999999999968 -39.837168574084195 L 17.320508075688767 -10.000000000000009 L 46 -5.2122957858361413e-14 L 17.32050807568878 9.999999999999986 L 46 0 L 46 0" fill-opacity="1"/></g></g></g></svg>