<svg version="1.1" xmlns="http://www.w3.org/2000/svg" xmlns:xlink="http://www.w3.org/1999/xlink" width="800" height="500" viewBox="0 0 800 500"><defs/><g/><g transform="scale(1,1)"><g><g transform="scale(1,1)"><rect fill="rgb(0,255,246)" stroke="none" x="0" y="0" width="800" height="500" fill-opacity="1"/></g><path fill="none" stroke="rgb(0,34,196)" paint-order="fill stroke markers" d=" M 207.49999999999994 0 L 207.49999999999994 500" stroke-opacity="1" stroke-linecap="square" stroke-miterlimit="10" stroke-width="265.09086975335356"/><path fill="rgb(0,80,135)" stroke="none" paint-order="stroke fill markers" d=" M 412.765957446809 250.00000000000026 C 412.765957446809 208.57864376500044 446.3446012118088 175.00000000000057 487.76595744680867 175.00000000000057 C 529.1873136818085 175.00000000000057 562.7659574468084 208.57864376500044 562.7659574468084 250.00000000000026 C 562.7659574468084 291.4213562350001 529.1873136818085 324.99999999999994 487.76595744680867 324.99999999999994 C 446.3446012118088 324.99999999999994 412.765957446809 291.4213562350001 412.765957446809 250.00000000000026 Z" fill-opacity="1"/><g transform="translate(85,415) rotate(-90,0,0)"><path fill="rgb(0,183,29)" stroke="none" paint-order="stroke fill markers" d=" M 46 0 L 17.320508075688775 9.999999999999998 L 23.000000000000004 39.837168574084174 L 1.2246467991473533e-15 20 L -22.99999999999999 39.83716857408418 L -17.32050807568877 10.000000000000007 L -46 5.633375276077825e-15 L -17.320508075688778 -9.999999999999995 L -23.00000000000002 -39.83716857408417 L -3.673940397442059e-15 -20 L 22.999999999999968 -39.837168574084195 L 17.320508075688767 -10.000000000000009 L 46 -5.2122957858361413e-14 L 17.32050807568878 9.999999999999986 L 46 0 L 46 0" fill-opacity="1"/></g></g></g></svg>