<svg version="1.1" xmlns="http://www.w3.org/2000/svg" xmlns:xlink="http://www.w3.org/1999/xlink" width="800" height="500" viewBox="0 0 800 500"><defs/><g/><g transform="scale(1,1)"><g><g transform="scale(1,1)"><rect fill="rgb(136,255,0)" stroke="none" x="0" y="0" width="800" height="500" fill-opacity="1"/></g><path fill="none" stroke="rgb(142,158,0)" paint-order="fill stroke markers" d=" M 0 376.66666666666663 L 800 376.66666666666663" stroke-opacity="1" stroke-linecap="square" stroke-miterlimit="10" stroke-width="97.6625"/><path fill="none" stroke="rgb(81,84,0)" paint-order="fill stroke markers" d=" M 245.56755399296853 300.2058319039453 C 245.56755399296853 241.96489465230908 292.7811621958775 194.7512864494001 351.0220994475137 194.7512864494001 C 409.2630366991499 194.7512864494001 456.47664490205887 241.96489465230908 456.47664490205887 300.2058319039453 C 456.47664490205887 358.4467691555815 409.2630366991499 405.66037735849045 351.0220994475137 405.66037735849045 C 292.7811621958775 405.66037735849045 245.56755399296853 358.4467691555815 245.56755399296853 300.2058319039453 Z" stroke-opacity="1" stroke-linecap="square" stroke-miterlimit="10" stroke-width="30"/><g transform="translate(715,85) rotate(-90,0,0)"><path fill="rgb(0,140,46)" stroke="none" paint-order="stroke fill markers" d=" M 39 0 L 14.562305898749054 10.580134541264517 L 12.051662780622951 37.091204135510985 L -5.562305898749052 17.119017293312766 L -31.551662780622948 22.923624839406457 L -18 2.204364238465236e-15 L -31.55166278062295 -22.923624839406447 L -5.562305898749056 -17.119017293312762 L 12.051662780622943 -37.09120413551099 L 14.562305898749052 -10.58013454126452 L 39 0 L 39 0" fill-opacity="1"/></g></g></g></svg>