<svg version="1.1" xmlns="http://www.w3.org/2000/svg" xmlns:xlink="http://www.w3.org/1999/xlink" width="800" height="500" viewBox="0 0 800 500"><defs/><g/><g transform="scale(1,1)"><g><g transform="scale(1,1)"><rect fill="rgb(80,2,0)" stroke="none" x="0" y="0" width="800" height="500" fill-opacity="1"/></g><g transform="translate(747.5000000000001,0)"><path fill="none" stroke="rgb(168,118,0)" paint-order="fill stroke markers" d=" M -1600 1000 L 800 -500" stroke-opacity="1" stroke-linecap="square" stroke-miterlimit="10" stroke-width="98.72349632193855"/><g transform="translate(-747.5000000000001,0)"><path fill="rgb(0,192,200)" stroke="none" paint-order="stroke fill markers" d=" M 690.5029013539652 250.00000000000063 L 445.9574468085106 494.5454545454552 L 201.41199226305608 250.00000000000065 L 445.95744680851055 5.454545454546093 L 690.5029013539652 250.00000000000063 L 690.5029013539652 250.00000000000063" fill-opacity="1"/><g transform="translate(715,85) rotate(-90,0,0)"><path fill="rgb(211,0,97)" stroke="none" paint-order="stroke fill markers" d=" M 46 0 L 16.18033988749895 11.755705045849464 L 14.214781741247583 43.74859974957706 L -6.180339887498947 19.021130325903073 L -37.21478174124758 27.03812160545377 L -20 2.4492935982947065e-15 L -37.214781741247585 -27.03812160545376 L -6.180339887498951 -19.02113032590307 L 14.214781741247572 -43.74859974957707 L 16.180339887498945 -11.755705045849467 L 46 0 L 46 0" fill-opacity="1"/></g></g></g></g></g></svg>