<svg version="1.1" xmlns="http://www.w3.org/2000/svg" xmlns:xlink="http://www.w3.org/1999/xlink" width="800" height="500" viewBox="0 0 800 500"><defs/><g/><g transform="scale(1,1)"><g><g transform="scale(1,1)"><rect fill="rgb(126,3,0)" stroke="none" x="0" y="0" width="800" height="500" fill-opacity="1"/></g><g transform="translate(810.1111111111112,0)"><path fill="none" stroke="rgb(170,123,0)" paint-order="fill stroke markers" d=" M -1600 1000 L 800 -500" stroke-opacity="1" stroke-linecap="square" stroke-miterlimit="10" stroke-width="131.4625"/><g transform="translate(-810.1111111111112,0)"><path fill="rgb(0,142,196)" stroke="none" paint-order="stroke fill markers" d=" M 684.9698643897541 274.9399656946827 L 474.06077348066304 485.8490566037737 L 263.15168257157205 274.9399656946827 L 474.060773480663 64.03087478559172 L 684.9698643897541 274.9399656946827 L 684.9698643897541 274.9399656946827" fill-opacity="1"/><g transform="translate(715,85) rotate(-90,0,0)"><path fill="rgb(189,0,103)" stroke="none" paint-order="stroke fill markers" d=" M 39 0 L 14.562305898749054 10.580134541264517 L 12.051662780622951 37.091204135510985 L -5.562305898749052 17.119017293312766 L -31.551662780622948 22.923624839406457 L -18 2.204364238465236e-15 L -31.55166278062295 -22.923624839406447 L -5.562305898749056 -17.119017293312762 L 12.051662780622943 -37.09120413551099 L 14.562305898749052 -10.58013454126452 L 39 0 L 39 0" fill-opacity="1"/></g></g></g></g></g></svg>