<svg version="1.1" xmlns="http://www.w3.org/2000/svg" xmlns:xlink="http://www.w3.org/1999/xlink" width="800" height="500" viewBox="0 0 800 500"><defs/><g/><g transform="scale(1,1)"><g><g transform="scale(1,1)"><rect fill="rgb(133,255,0)" stroke="none" x="0" y="0" width="800" height="500" fill-opacity="1"/></g><g transform="translate(788.5714285714287,0)"><path fill="none" stroke="rgb(139,168,0)" paint-order="fill stroke markers" d=" M -1600 1000 L 800 -500" stroke-opacity="1" stroke-linecap="square" stroke-miterlimit="10" stroke-width="72.42535698831675"/><g transform="translate(-788.5714285714287,0)"><path fill="none" stroke="rgb(72,123,0)" paint-order="fill stroke markers" d=" M 323.8323662153445 331.25000000000017 C 323.8323662153445 293.5942216045456 354.3584060017082 263.0681818181819 392.01418439716275 263.0681818181819 C 429.6699627926173 263.0681818181819 460.196002578981 293.5942216045456 460.196002578981 331.25000000000017 C 460.196002578981 368.9057783954547 429.6699627926173 399.4318181818184 392.01418439716275 399.4318181818184 C 354.3584060017082 399.4318181818184 323.8323662153445 368.9057783954547 323.8323662153445 331.25000000000017 Z" stroke-opacity="1" stroke-linecap="square" stroke-miterlimit="10" stroke-width="30"/><g transform="translate(715,85) rotate(-90,0,0)"><path fill="rgb(0,174,124)" stroke="none" paint-order="stroke fill markers" d=" M 46 0 L 16.18033988749895 11.755705045849464 L 14.214781741247583 43.74859974957706 L -6.180339887498947 19.021130325903073 L -37.21478174124758 27.03812160545377 L -20 2.4492935982947065e-15 L -37.214781741247585 -27.03812160545376 L -6.180339887498951 -19.02113032590307 L 14.214781741247572 -43.74859974957707 L 16.180339887498945 -11.755705045849467 L 46 0 L 46 0" fill-opacity="1"/></g></g></g></g></g></svg>