<svg version="1.1" xmlns="http://www.w3.org/2000/svg" xmlns:xlink="http://www.w3.org/1999/xlink" width="800" height="500" viewBox="0 0 800 500"><defs/><g/><g transform="scale(1,1)"><g><g transform="scale(1,1)"><rect fill="rgb(42,145,0)" stroke="none" x="0" y="0" width="800" height="500" fill-opacity="1"/></g><path fill="none" stroke="rgb(213,109,0)" paint-order="fill stroke markers" d=" M 0 393.33333333333337 L 800 393.33333333333337" stroke-opacity="1" stroke-linecap="square" stroke-miterlimit="10" stroke-width="59.15"/><path fill="none" stroke="rgb(47,117,0)" paint-order="fill stroke markers" d=" M 406.86254813326644 248.96512292738686 C 406.86254813326644 185.87077423811422 458.0106236864179 134.72269868496278 521.1049723756905 134.72269868496278 C 584.1993210649632 134.72269868496278 635.3473966181147 185.87077423811422 635.3473966181147 248.96512292738686 C 635.3473966181147 312.0594716166595 584.1993210649632 363.20754716981094 521.1049723756905 363.20754716981094 C 458.0106236864179 363.20754716981094 406.86254813326644 312.0594716166595 406.86254813326644 248.96512292738686 Z" stroke-opacity="1" stroke-linecap="square" stroke-miterlimit="10" stroke-width="30"/><g transform="translate(85,85) rotate(-90,0,0)"><path fill="rgb(0,3,100)" stroke="none" paint-order="stroke fill markers" d=" M 39 0 L 12.727922061357857 12.727922061357855 L 2.388061258337339e-15 39 L -12.727922061357855 12.727922061357857 L -39 4.776122516674678e-15 L -12.727922061357859 -12.727922061357855 L -7.164183775012016e-15 -39 L 12.727922061357852 -12.727922061357859 L 39 0 L 39 0" fill-opacity="1"/></g></g></g></svg>