<svg version="1.1" xmlns="http://www.w3.org/2000/svg" xmlns:xlink="http://www.w3.org/1999/xlink" width="800" height="500" viewBox="0 0 800 500"><defs/><g/><g transform="scale(1,1)"><g><g transform="scale(1,1)"><rect fill="rgb(42,143,0)" stroke="none" x="0" y="0" width="800" height="500" fill-opacity="1"/></g><path fill="none" stroke="rgb(221,127,0)" paint-order="fill stroke markers" d=" M 0 327.4401928664154 L 800 327.4401928664154" stroke-opacity="1" stroke-linecap="square" stroke-miterlimit="10" stroke-width="51.845521419299004"/><path fill="none" stroke="rgb(41,136,0)" paint-order="fill stroke markers" d=" M 533.1747259832366 268.7500000000001 C 533.1747259832366 223.5630659254545 569.8059737268732 186.93181818181802 614.9929078014187 186.93181818181802 C 660.1798418759643 186.93181818181802 696.8110896196008 223.5630659254545 696.8110896196008 268.7500000000001 C 696.8110896196008 313.9369340745457 660.1798418759643 350.5681818181822 614.9929078014187 350.5681818181822 C 569.8059737268732 350.5681818181822 533.1747259832366 313.9369340745457 533.1747259832366 268.7500000000001 Z" stroke-opacity="1" stroke-linecap="square" stroke-miterlimit="10" stroke-width="30"/><g transform="translate(85,85) rotate(-90,0,0)"><path fill="rgb(28,0,131)" stroke="none" paint-order="stroke fill markers" d=" M 46 0 L 14.142135623730951 14.14213562373095 L 2.8166876380389124e-15 46 L -14.14213562373095 14.142135623730951 L -46 5.633375276077825e-15 L -14.142135623730955 -14.14213562373095 L -8.450062914116736e-15 -46 L 14.142135623730947 -14.142135623730955 L 46 0 L 46 0" fill-opacity="1"/></g></g></g></svg>