<svg version="1.1" xmlns="http://www.w3.org/2000/svg" xmlns:xlink="http://www.w3.org/1999/xlink" width="800" height="500" viewBox="0 0 800 500"><defs/><g/><g transform="scale(1,1)"><g><g transform="scale(1,1)"><rect fill="rgb(218,113,0)" stroke="none" x="0" y="0" width="800" height="500" fill-opacity="1"/></g><path fill="none" stroke="rgb(166,77,0)" paint-order="fill stroke markers" d=" M 0 329.6215305680906 L 800 329.6215305680906" stroke-opacity="1" stroke-linecap="square" stroke-miterlimit="10" stroke-width="40.735612289052355"/><path fill="none" stroke="rgb(88,109,0)" paint-order="fill stroke markers" d=" M 152.25274016763348 293.75000000000045 C 152.25274016763348 248.56306592545485 188.88398791126997 211.93181818181836 234.07092198581557 211.93181818181836 C 279.2578560603612 211.93181818181836 315.8891038039976 248.56306592545485 315.8891038039976 293.75000000000045 C 315.8891038039976 338.93693407454606 279.2578560603612 375.56818181818255 234.07092198581557 375.56818181818255 C 188.88398791126997 375.56818181818255 152.25274016763348 338.93693407454606 152.25274016763348 293.75000000000045 Z" stroke-opacity="1" stroke-linecap="square" stroke-miterlimit="10" stroke-width="30"/><g transform="translate(715,415) rotate(-45,0,0)"><path fill="rgb(0,124,123)" stroke="none" paint-order="stroke fill markers" d=" M 46 0 L 13.435028842544403 13.435028842544401 L 2.8166876380389124e-15 46 L -13.435028842544401 13.435028842544403 L -46 5.633375276077825e-15 L -13.435028842544407 -13.435028842544401 L -8.450062914116736e-15 -46 L 13.4350288425444 -13.435028842544407 L 46 0 L 46 0" fill-opacity="1"/></g></g></g></svg>