<svg version="1.1" xmlns="http://www.w3.org/2000/svg" xmlns:xlink="http://www.w3.org/1999/xlink" width="800" height="500" viewBox="0 0 800 500"><defs/><g/><g transform="scale(1,1)"><g><g transform="scale(1,1)"><rect fill="rgb(29,255,0)" stroke="none" x="0" y="0" width="800" height="500" fill-opacity="1"/></g><g transform="translate(965.1785714285713,0)"><path fill="none" stroke="rgb(103,201,0)" paint-order="fill stroke markers" d=" M -1600 1000 L 800 -500" stroke-opacity="1" stroke-linecap="square" stroke-miterlimit="10" stroke-width="84.6603202077023"/><g transform="translate(-965.1785714285713,0)"><path fill="none" stroke="rgb(0,164,72)" paint-order="fill stroke markers" d=" M 429.1747259832366 293.75000000000045 C 429.1747259832366 248.56306592545485 465.8059737268731 211.93181818181836 510.9929078014187 211.93181818181836 C 556.1798418759643 211.93181818181836 592.8110896196008 248.56306592545485 592.8110896196008 293.75000000000045 C 592.8110896196008 338.93693407454606 556.1798418759643 375.56818181818255 510.9929078014187 375.56818181818255 C 465.8059737268731 375.56818181818255 429.1747259832366 338.93693407454606 429.1747259832366 293.75000000000045 Z" stroke-opacity="1" stroke-linecap="square" stroke-miterlimit="10" stroke-width="30"/><g transform="translate(85,415) rotate(-90,0,0)"><path fill="rgb(42,0,160)" stroke="none" paint-order="stroke fill markers" d=" M 46 0 L 14.142135623730951 14.14213562373095 L 2.8166876380389124e-15 46 L -14.14213562373095 14.142135623730951 L -46 5.633375276077825e-15 L -14.142135623730955 -14.14213562373095 L -8.450062914116736e-15 -46 L 14.142135623730947 -14.142135623730955 L 46 0 L 46 0" fill-opacity="1"/></g></g></g></g></g></svg>