<svg version="1.1" xmlns="http://www.w3.org/2000/svg" xmlns:xlink="http://www.w3.org/1999/xlink" width="800" height="500" viewBox="0 0 800 500"><defs/><g/><g transform="scale(1,1)"><g><g transform="scale(1,1)"><rect fill="rgb(24,230,0)" stroke="none" x="0" y="0" width="800" height="500" fill-opacity="1"/></g><path fill="none" stroke="rgb(121,201,0)" paint-order="fill stroke markers" d=" M 0 430 L 800 430" stroke-opacity="1" stroke-linecap="square" stroke-miterlimit="10" stroke-width="114.725"/><path fill="rgb(0,150,63)" stroke="none" paint-order="stroke fill markers" d=" M 406.0873932697138 239.8542024013725 C 406.0873932697138 174.3331479932818 459.20270249798637 121.21783876500926 524.723756906077 121.21783876500926 C 590.2448113141677 121.21783876500926 643.3601205424403 174.3331479932818 643.3601205424403 239.8542024013725 C 643.3601205424403 305.37525680946317 590.2448113141677 358.49056603773573 524.723756906077 358.49056603773573 C 459.20270249798637 358.49056603773573 406.0873932697138 305.37525680946317 406.0873932697138 239.8542024013725 Z" fill-opacity="1"/><g transform="translate(85,415) rotate(-90,0,0)"><path fill="rgb(0,4,125)" stroke="none" paint-order="stroke fill markers" d=" M 39 0 L 12.727922061357857 12.727922061357855 L 2.388061258337339e-15 39 L -12.727922061357855 12.727922061357857 L -39 4.776122516674678e-15 L -12.727922061357859 -12.727922061357855 L -7.164183775012016e-15 -39 L 12.727922061357852 -12.727922061357859 L 39 0 L 39 0" fill-opacity="1"/></g></g></g></svg>