<svg version="1.1" xmlns="http://www.w3.org/2000/svg" xmlns:xlink="http://www.w3.org/1999/xlink" width="800" height="500" viewBox="0 0 800 500"><defs/><g/><g transform="scale(1,1)"><g><g transform="scale(1,1)"><rect fill="rgb(255,19,0)" stroke="none" x="0" y="0" width="800" height="500" fill-opacity="1"/></g><g transform="translate(741.1111111111112,0)"><path fill="none" stroke="rgb(18,195,0)" paint-order="fill stroke markers" d=" M -1600 1000 L 800 -500" stroke-opacity="1" stroke-linecap="square" stroke-miterlimit="10" stroke-width="229.125"/><g transform="translate(-741.1111111111112,0)"><path fill="rgb(0,136,114)" stroke="none" paint-order="stroke fill markers" d=" M 435.8128243763603 192.36134934248173 C 435.8128243763603 129.2670006532091 486.96089992951175 78.11892510005764 550.0552486187844 78.11892510005764 C 613.1495973080571 78.11892510005764 664.2976728612085 129.2670006532091 664.2976728612085 192.36134934248173 C 664.2976728612085 255.45569803175437 613.1495973080571 306.6037735849058 550.0552486187844 306.6037735849058 C 486.96089992951175 306.6037735849058 435.8128243763603 255.45569803175437 435.8128243763603 192.36134934248173 Z" fill-opacity="1"/><g transform="translate(85,85) rotate(-90,0,0)"><path fill="rgb(0,147,134)" stroke="none" paint-order="stroke fill markers" d=" M 39 0 L 15.588457268119896 8.999999999999998 L 19.500000000000004 33.77499074759311 L 1.102182119232618e-15 18 L -19.499999999999993 33.77499074759311 L -15.588457268119893 9.000000000000005 L -39 4.776122516674678e-15 L -15.5884572681199 -8.999999999999995 L -19.500000000000018 -33.7749907475931 L -3.3065463576978533e-15 -18 L 19.499999999999975 -33.77499074759312 L 15.58845726811989 -9.000000000000007 L 39 -4.419120340165424e-14 L 15.588457268119903 8.999999999999988 L 39 0 L 39 0" fill-opacity="1"/></g></g></g></g></g></svg>