<svg version="1.1" xmlns="http://www.w3.org/2000/svg" xmlns:xlink="http://www.w3.org/1999/xlink" width="800" height="500" viewBox="0 0 800 500"><defs/><g/><g transform="scale(1,1)"><g><g transform="scale(1,1)"><rect fill="rgb(255,19,0)" stroke="none" x="0" y="0" width="800" height="500" fill-opacity="1"/></g><g transform="translate(533.9285714285714,0)"><path fill="none" stroke="rgb(3,203,0)" paint-order="fill stroke markers" d=" M -1600 1000 L 800 -500" stroke-opacity="1" stroke-linecap="square" stroke-miterlimit="10" stroke-width="188.16529640848117"/><g transform="translate(-533.9285714285714,0)"><path fill="rgb(0,160,166)" stroke="none" paint-order="stroke fill markers" d=" M 503.2011605415862 149.99999999999963 C 503.2011605415862 112.34422160454506 533.7272003279498 81.81818181818139 571.3829787234044 81.81818181818139 C 609.038757118859 81.81818181818139 639.5647969052227 112.34422160454506 639.5647969052227 149.99999999999963 C 639.5647969052227 187.6557783954542 609.038757118859 218.18181818181787 571.3829787234044 218.18181818181787 C 533.7272003279498 218.18181818181787 503.2011605415862 187.6557783954542 503.2011605415862 149.99999999999963 Z" fill-opacity="1"/><g transform="translate(85,415) rotate(-90,0,0)"><path fill="rgb(0,119,192)" stroke="none" paint-order="stroke fill markers" d=" M 46 0 L 17.320508075688775 9.999999999999998 L 23.000000000000004 39.837168574084174 L 1.2246467991473533e-15 20 L -22.99999999999999 39.83716857408418 L -17.32050807568877 10.000000000000007 L -46 5.633375276077825e-15 L -17.320508075688778 -9.999999999999995 L -23.00000000000002 -39.83716857408417 L -3.673940397442059e-15 -20 L 22.999999999999968 -39.837168574084195 L 17.320508075688767 -10.000000000000009 L 46 -5.2122957858361413e-14 L 17.32050807568878 9.999999999999986 L 46 0 L 46 0" fill-opacity="1"/></g></g></g></g></g></svg>