<svg version="1.1" xmlns="http://www.w3.org/2000/svg" xmlns:xlink="http://www.w3.org/1999/xlink" width="800" height="500" viewBox="0 0 800 500"><defs/><g/><g transform="scale(1,1)"><g><g transform="scale(1,1)"><rect fill="rgb(165,112,0)" stroke="none" x="0" y="0" width="800" height="500" fill-opacity="1"/></g><g transform="translate(969.285714285714,0)"><path fill="none" stroke="rgb(120,148,0)" paint-order="fill stroke markers" d=" M -1600 1000 L 800 -500" stroke-opacity="1" stroke-linecap="square" stroke-miterlimit="10" stroke-width="56.25270445694505"/><g transform="translate(-969.285714285714,0)"><path fill="none" stroke="rgb(94,125,0)" paint-order="fill stroke markers" d=" M 335.5957446808512 300.0000000000001 C 335.5957446808512 258.57864376500027 369.17438844585104 225.00000000000043 410.5957446808509 225.00000000000043 C 452.01710091585073 225.00000000000043 485.5957446808506 258.57864376500027 485.5957446808506 300.0000000000001 C 485.5957446808506 341.42135623499996 452.01710091585073 374.9999999999998 410.5957446808509 374.9999999999998 C 369.17438844585104 374.9999999999998 335.5957446808512 341.42135623499996 335.5957446808512 300.0000000000001 Z" stroke-opacity="1" stroke-linecap="square" stroke-miterlimit="10" stroke-width="30"/><g transform="translate(85,85) rotate(-45,0,0)"><path fill="rgb(0,135,44)" stroke="none" paint-order="stroke fill markers" d=" M 46 0 L 13.435028842544403 13.435028842544401 L 2.8166876380389124e-15 46 L -13.435028842544401 13.435028842544403 L -46 5.633375276077825e-15 L -13.435028842544407 -13.435028842544401 L -8.450062914116736e-15 -46 L 13.4350288425444 -13.435028842544407 L 46 0 L 46 0" fill-opacity="1"/></g></g></g></g></g></svg>