<svg version="1.1" xmlns="http://www.w3.org/2000/svg" xmlns:xlink="http://www.w3.org/1999/xlink" width="800" height="500" viewBox="0 0 800 500"><defs/><g/><g transform="scale(1,1)"><g><g transform="scale(1,1)"><rect fill="rgb(56,0,255)" stroke="none" x="0" y="0" width="800" height="500" fill-opacity="1"/></g><g transform="translate(661.25,0)"><path fill="none" stroke="rgb(0,210,10)" paint-order="fill stroke markers" d=" M -1600 1000 L 800 -500" stroke-opacity="1" stroke-linecap="square" stroke-miterlimit="10" stroke-width="66.94071830376461"/><g transform="translate(-661.25,0)"><path fill="none" stroke="rgb(0,120,46)" paint-order="fill stroke markers" d=" M 22.181818181817917 337.49999999999983 C 22.181818181817917 292.3130659254542 58.8130659254544 255.68181818181773 104 255.68181818181773 C 149.1869340745456 255.68181818181773 185.8181818181821 292.3130659254542 185.8181818181821 337.49999999999983 C 185.8181818181821 382.68693407454543 149.1869340745456 419.31818181818187 104 419.31818181818187 C 58.8130659254544 419.31818181818187 22.181818181817917 382.68693407454543 22.181818181817917 337.49999999999983 Z" stroke-opacity="1" stroke-linecap="square" stroke-miterlimit="10" stroke-width="30"/><g transform="translate(715,85) rotate(-45,0,0)"><path fill="rgb(162,45,0)" stroke="none" paint-order="stroke fill markers" d=" M 46 0 L 13.435028842544403 13.435028842544401 L 2.8166876380389124e-15 46 L -13.435028842544401 13.435028842544403 L -46 5.633375276077825e-15 L -13.435028842544407 -13.435028842544401 L -8.450062914116736e-15 -46 L 13.4350288425444 -13.435028842544407 L 46 0 L 46 0" fill-opacity="1"/></g></g></g></g></g></svg>