<svg version="1.1" xmlns="http://www.w3.org/2000/svg" xmlns:xlink="http://www.w3.org/1999/xlink" width="800" height="500" viewBox="0 0 800 500"><defs/><g/><g transform="scale(1,1)"><g><g transform="scale(1,1)"><rect fill="rgb(255,95,0)" stroke="none" x="0" y="0" width="800" height="500" fill-opacity="1"/></g><g transform="translate(994.1111111111113,0)"><path fill="none" stroke="rgb(41,218,0)" paint-order="fill stroke markers" d=" M -1600 1000 L 800 -500" stroke-opacity="1" stroke-linecap="square" stroke-miterlimit="10" stroke-width="218.725"/><g transform="translate(-994.1111111111113,0)"><path fill="rgb(0,58,190)" stroke="none" paint-order="stroke fill markers" d=" M 547.7172275238572 286.1835334476843 L 376.353591160221 457.54716981132043 L 204.98995479658487 286.1835334476843 L 376.35359116022096 114.81989708404814 L 547.7172275238572 286.1835334476843 L 547.7172275238572 286.1835334476843" fill-opacity="1"/><g transform="translate(715,415) rotate(-90,0,0)"><path fill="rgb(168,0,181)" stroke="none" paint-order="stroke fill markers" d=" M 39 0 L 14.562305898749054 10.580134541264517 L 12.051662780622951 37.091204135510985 L -5.562305898749052 17.119017293312766 L -31.551662780622948 22.923624839406457 L -18 2.204364238465236e-15 L -31.55166278062295 -22.923624839406447 L -5.562305898749056 -17.119017293312762 L 12.051662780622943 -37.09120413551099 L 14.562305898749052 -10.58013454126452 L 39 0 L 39 0" fill-opacity="1"/></g></g></g></g></g></svg>