<svg version="1.1" xmlns="http://www.w3.org/2000/svg" xmlns:xlink="http://www.w3.org/1999/xlink" width="800" height="500" viewBox="0 0 800 500"><defs/><g/><g transform="scale(1,1)"><g><g transform="scale(1,1)"><rect fill="rgb(0,0,0)" stroke="none" x="0" y="0" width="800" height="500" fill-opacity="1"/></g><path fill="none" stroke="rgb(114,0,0)" paint-order="fill stroke markers" d=" M 0 483.66044384001987 L 800 483.66044384001987" stroke-opacity="1" stroke-linecap="square" stroke-miterlimit="10" stroke-width="20.625270445694504"/><path fill="none" stroke="rgb(83,22,0)" paint-order="fill stroke markers" d=" M 581.2018052869115 131.24999999999977 C 581.2018052869115 104.89095512318147 602.5700331373662 83.52272727272681 628.9290780141845 83.52272727272681 C 655.2881228910028 83.52272727272681 676.6563507414575 104.89095512318147 676.6563507414575 131.24999999999977 C 676.6563507414575 157.60904487681807 655.2881228910028 178.97727272727275 628.9290780141845 178.97727272727275 C 602.5700331373662 178.97727272727275 581.2018052869115 157.60904487681807 581.2018052869115 131.24999999999977 Z" stroke-opacity="1" stroke-linecap="square" stroke-miterlimit="10" stroke-width="30"/><g transform="translate(85,415) rotate(-45,0,0)"><path fill="rgb(0,50,0)" stroke="none" paint-order="stroke fill markers" d=" M 46 0 L 13.435028842544403 13.435028842544401 L 2.8166876380389124e-15 46 L -13.435028842544401 13.435028842544403 L -46 5.633375276077825e-15 L -13.435028842544407 -13.435028842544401 L -8.450062914116736e-15 -46 L 13.4350288425444 -13.435028842544407 L 46 0 L 46 0" fill-opacity="1"/></g></g></g></svg>