<svg version="1.1" xmlns="http://www.w3.org/2000/svg" xmlns:xlink="http://www.w3.org/1999/xlink" width="800" height="500" viewBox="0 0 800 500"><defs/><g/><g transform="scale(1,1)"><g><g transform="scale(1,1)"><rect fill="rgb(175,141,0)" stroke="none" x="0" y="0" width="800" height="500" fill-opacity="1"/></g><g transform="translate(891.2500000000001,0)"><path fill="none" stroke="rgb(190,171,0)" paint-order="fill stroke markers" d=" M -1600 1000 L 800 -500" stroke-opacity="1" stroke-linecap="square" stroke-miterlimit="10" stroke-width="83.39463435742103"/><g transform="translate(-891.2500000000001,0)"><path fill="none" stroke="rgb(0,182,77)" paint-order="fill stroke markers" d=" M 655.838168923275 242.04545454545456 L 524.9290780141845 372.95454545454515 L 394.01998710509395 242.0454545454546 L 524.9290780141845 111.136363636364 L 655.838168923275 242.04545454545456 L 655.838168923275 242.04545454545456" stroke-opacity="1" stroke-linecap="square" stroke-miterlimit="10" stroke-width="30"/><g transform="translate(85,85) rotate(-90,0,0)"><path fill="rgb(169,0,124)" stroke="none" paint-order="stroke fill markers" d=" M 46 0 L 16.18033988749895 11.755705045849464 L 14.214781741247583 43.74859974957706 L -6.180339887498947 19.021130325903073 L -37.21478174124758 27.03812160545377 L -20 2.4492935982947065e-15 L -37.214781741247585 -27.03812160545376 L -6.180339887498951 -19.02113032590307 L 14.214781741247572 -43.74859974957707 L 16.180339887498945 -11.755705045849467 L 46 0 L 46 0" fill-opacity="1"/></g></g></g></g></g></svg>