<svg version="1.1" xmlns="http://www.w3.org/2000/svg" xmlns:xlink="http://www.w3.org/1999/xlink" width="800" height="500" viewBox="0 0 800 500"><defs/><g/><g transform="scale(1,1)"><g><g transform="scale(1,1)"><rect fill="rgb(80,0,0)" stroke="none" x="0" y="0" width="800" height="500" fill-opacity="1"/></g><g transform="translate(977.4999999999999,0)"><path fill="none" stroke="rgb(106,129,0)" paint-order="fill stroke markers" d=" M -1600 1000 L 800 -500" stroke-opacity="1" stroke-linecap="square" stroke-miterlimit="10" stroke-width="134.44396365209866"/><g transform="translate(-977.4999999999999,0)"><path fill="rgb(0,190,174)" stroke="none" paint-order="stroke fill markers" d=" M 161.91489361702145 406.25000000000034 C 161.91489361702145 364.8286437650005 195.49353738202132 331.2500000000007 236.91489361702114 331.2500000000007 C 278.33624985202096 331.2500000000007 311.9148936170208 364.8286437650005 311.9148936170208 406.25000000000034 C 311.9148936170208 447.6713562350002 278.33624985202096 481.25000000000006 236.91489361702114 481.25000000000006 C 195.49353738202132 481.25000000000006 161.91489361702145 447.6713562350002 161.91489361702145 406.25000000000034 Z" fill-opacity="1"/><g transform="translate(715,415) rotate(-90,0,0)"><path fill="rgb(135,0,2)" stroke="none" paint-order="stroke fill markers" d=" M 46 0 L 14.142135623730951 14.14213562373095 L 2.8166876380389124e-15 46 L -14.14213562373095 14.142135623730951 L -46 5.633375276077825e-15 L -14.142135623730955 -14.14213562373095 L -8.450062914116736e-15 -46 L 14.142135623730947 -14.142135623730955 L 46 0 L 46 0" fill-opacity="1"/></g></g></g></g></g></svg>